<?xml version="1.0" encoding="UTF-8" standalone="no"?>
<!-- Created with Inkscape (http://www.inkscape.org/) -->

<svg
   xmlns:dc="http://purl.org/dc/elements/1.1/"
   xmlns:cc="http://creativecommons.org/ns#"
   xmlns:rdf="http://www.w3.org/1999/02/22-rdf-syntax-ns#"
   xmlns:svg="http://www.w3.org/2000/svg"
   xmlns="http://www.w3.org/2000/svg"
   xmlns:sodipodi="http://sodipodi.sourceforge.net/DTD/sodipodi-0.dtd"
   xmlns:inkscape="http://www.inkscape.org/namespaces/inkscape"
   width="210mm"
   height="297mm"
   viewBox="0 0 744.09448819 1052.3622047"
   id="svg4200"
   version="1.1"
   inkscape:version="0.91 r13725"
   sodipodi:docname="gate.svg"
   inkscape:export-filename="E:\Pictures\Art\Pond Scum\gate.png"
   inkscape:export-xdpi="90"
   inkscape:export-ydpi="90">
  <defs
     id="defs4202" />
  <sodipodi:namedview
     id="base"
     pagecolor="#ffffff"
     bordercolor="#666666"
     borderopacity="1.0"
     inkscape:pageopacity="1"
     inkscape:pageshadow="2"
     inkscape:zoom="0.9899495"
     inkscape:cx="303.55702"
     inkscape:cy="511.04543"
     inkscape:document-units="px"
     inkscape:current-layer="layer1"
     showgrid="false"
     inkscape:window-width="1920"
     inkscape:window-height="1017"
     inkscape:window-x="-8"
     inkscape:window-y="-8"
     inkscape:window-maximized="1"
     inkscape:showpageshadow="true"
     showborder="true" />
  <metadata
     id="metadata4205">
    <rdf:RDF>
      <cc:Work
         rdf:about="">
        <dc:format>image/svg+xml</dc:format>
        <dc:type
           rdf:resource="http://purl.org/dc/dcmitype/StillImage" />
        <dc:title></dc:title>
      </cc:Work>
    </rdf:RDF>
  </metadata>
  <g
     inkscape:label="Layer 1"
     inkscape:groupmode="layer"
     id="layer1">
    <g
       transform="matrix(0.11218238,0,0,0.11218238,386.47629,731.66028)"
       id="g4143">
      <path
         sodipodi:nodetypes="aaaaaaaaaaaaaaaaaaaaaaaaa"
         inkscape:connector-curvature="0"
         id="path4766"
         d="m -622.85714,980.93363 c 46.44158,-43.10095 65.98401,-130.13455 128.57143,-140 89.73344,-14.14439 155.29295,94.88079 237.14285,134.28572 98.95514,47.63985 199.195223,96.11085 305.714289,122.85715 134.750441,33.8351 275.407961,41.7818 414.285711,45.7143 143.00286,4.0493 290.00559,12.7198 428.57143,-22.8572 144.40273,-37.0756 281.87043,-107.1709 402.85713,-194.28568 81.9832,-59.03088 157.6158,-131.64387 211.4286,-217.14286 32.4201,-51.50969 38.7336,-115.55047 62.8571,-171.42857 12.6612,-29.32751 12.6465,-75.3352 42.8572,-85.71428 43.9135,-15.0868 92.6008,27.44991 125.7142,60 17.2246,16.93154 8.6148,60.25704 32.3275,64.84752 22.11,4.28021 32.6417,-31.16565 50.5297,-44.84753 26.2268,-20.06 50.0982,-58.42112 82.8571,-54.28571 35.934,4.53622 64.7098,45.06529 73.2382,80.26611 7.4125,30.59509 -11.3829,62.62222 -24.6667,91.16246 -17.6141,37.84376 -40.3395,75.0027 -71.4286,102.85714 -28.2486,25.30944 -67.5619,34.63069 -100,54.28572 -53.9925,32.7154 -105.2104,69.8185 -157.1429,105.71428 -96.0831,66.41277 -179.9957,153.196 -285.7142,202.8571 -183.7943,86.3372 -388.03334,125.2222 -588.57147,157.1429 -223.24315,35.5348 -451.82583,55.3765 -677.142859,37.1429 -216.739051,-17.5394 -453.736551,-23.1857 -637.142861,-140 -51.57324,-32.8478 -119.04156,-85.0446 -111.42857,-145.7143 2.87045,-22.8753 37.38714,-27.17414 54.28572,-42.85717 z"
         style="fill:#ff0fed;fill-opacity:1;fill-rule:evenodd;stroke:none;stroke-width:1px;stroke-linecap:butt;stroke-linejoin:miter;stroke-opacity:1" />
      <path
         sodipodi:nodetypes="aaaaaaaaaa"
         inkscape:connector-curvature="0"
         id="path4776"
         d="M 37.142861,-401.92351 C -25.460894,-255.19177 5.0142748,-84.230614 1.4285714e-6,75.219348 -4.0416706,203.74135 -66.166663,354.31577 5.7142885,460.93363 42.695494,515.78623 122.92331,529.90697 188.57143,538.07649 c 68.83611,8.56625 155.44981,16.37597 205.71428,-31.42857 61.98711,-58.95347 37.63952,-167.00241 51.42857,-251.42857 C 462.10881,154.84061 484.59719,54.056077 482.85714,-47.637795 480.44895,-188.37961 504.45825,-354.37195 417.14286,-464.78065 364.15482,-531.78304 263.23947,-581.11316 180,-561.92351 c -69.67096,16.06163 -114.799087,94.23706 -142.857139,160 z"
         style="fill:#da122d;fill-opacity:1;fill-rule:evenodd;stroke:none;stroke-width:1px;stroke-linecap:butt;stroke-linejoin:miter;stroke-opacity:1" />
      <path
         sodipodi:nodetypes="asaaaaaaa"
         inkscape:connector-curvature="0"
         id="path4768"
         d="m -486.53438,770.08127 c 54.11708,106.90397 289.09882,6.58777 424.692773,-27.80295 C 96.360785,702.15342 145.24049,784.22581 243.40561,761.50984 352.1091,736.35523 513.89012,690.62191 517.13311,598.6527 520.5673,501.26095 354.51715,440.94672 239.89629,412.93841 140.70812,388.70117 34.462491,437.28547 -69.060154,439.5292 -210.6998,442.59906 -441.24829,314.29981 -493.55304,421.50984 c -41.35812,84.77251 256.31929,85.9279 256.18086,177.14286 -0.13434,88.53039 -290.59706,89.57732 -249.1622,171.42857 z"
         style="fill:#00cc00;fill-rule:evenodd;stroke:none;stroke-width:1px;stroke-linecap:butt;stroke-linejoin:miter;stroke-opacity:1" />
      <path
         sodipodi:nodetypes="ssssssssssssssssssssssssss"
         inkscape:connector-curvature="0"
         id="path4748"
         d="m -750.49091,-358.06342 c -2.41328,0.18471 -4.79316,0.60469 -7.11843,1.28318 -51.39574,14.99665 -100.70274,58.00294 -132.6997,118.26575 -49.94673,94.06924 -70.39531,224.248251 -75.82824,348.33404 -5.10986,116.70706 24.27308,235.28977 41.56381,351.9642 21.49856,145.06807 14.97707,312.28533 77.1823,431.91512 46.51339,89.4521 123.69519,159.76833 196.37813,165.69413 67.9799,5.5423 138.90909,-47.8242 179.25292,-125.38213 62.54625,-120.24019 52.44221,-302.2443 61.95483,-458.96064 7.04558,-116.07303 24.53605,-239.86515 -3.85466,-352.53661 -31.70992,-125.8441186 -109.2279,-218.745935 -174.04572,-314.05281 -40.08375,-58.9384 -80.59333,-124.19125 -131.41536,-157.27669 -9.84053,-6.40623 -20.91231,-10.04797 -31.36988,-9.24754 z m 23.01523,194.97884 c 6.23987,-0.47763 12.84608,1.69631 18.71777,5.51881 30.32467,19.74153 54.49563,58.677735 78.41295,93.845291 38.67571,56.8680404 92.20143,191.968929 111.12222,267.058019 16.94027,67.22921 6.50405,141.09419 2.30006,210.35305 -5.67602,93.51001 12.03813,330.14709 -25.2822,401.89229 -24.07249,46.27759 -66.39416,78.12149 -106.95666,74.81439 -43.36871,-3.5359 -89.42223,-45.4917 -117.17598,-98.86619 -37.11683,-71.38114 -44.91151,-299.1964 -57.73935,-385.7561 -10.3171,-69.61771 -27.84927,-140.37446 -24.80029,-210.01162 3.24173,-74.03994 8.1713,-231.385109 37.97368,-287.514665 19.09206,-35.957805 48.51231,-61.616785 79.17931,-70.565035 1.38746,-0.40484 2.80853,-0.65802 4.24849,-0.76824 z"
         style="fill:#7d21c1;fill-opacity:1;fill-rule:evenodd;stroke:none;stroke-width:1px;stroke-linecap:butt;stroke-linejoin:miter;stroke-opacity:1" />
      <path
         sodipodi:nodetypes="aaaaaaaaaa"
         inkscape:connector-curvature="0"
         id="path4770"
         d="m 445.71429,1058.0765 c 127.48895,22.948 263.84465,-40.6897 388.57143,-5.7143 67.16741,18.8348 107.52986,106.9292 177.14278,111.4285 68.0382,4.3975 174.0207,-18.5444 185.7143,-85.7142 13.9762,-80.28095 -102.9229,-132.0875 -174.2857,-171.42858 -83.95666,-46.28393 -184.35876,-59.1044 -279.99996,-65.71429 -92.55696,-6.39673 -185.79258,9.50203 -277.14285,25.71429 -32.98083,5.85323 -74.14213,1.36347 -97.14286,25.71428 -29.37039,31.09436 -46.18561,88.15895 -25.71429,125.7143 17.60667,32.3 66.65194,33.483 102.85715,40 z"
         style="fill:#3a7cff;fill-opacity:1;fill-rule:evenodd;stroke:none;stroke-width:1px;stroke-linecap:butt;stroke-linejoin:miter;stroke-opacity:1" />
      <path
         sodipodi:nodetypes="aaaaaaa"
         inkscape:connector-curvature="0"
         id="path4772"
         d="m -14.296357,866.64791 c -1.06558,-27.74598 -44.669639,-35.44535 -71.428569,-42.85714 -38.548594,-10.67734 -83.225264,-15.73593 -119.999994,0 -26.62999,11.39499 -60.83584,33.90367 -60,62.85714 0.56389,19.53309 24.76379,32.61827 42.85714,40 37.04677,15.11436 81.73682,14.55483 119.99999,2.85714 34.621244,-10.58429 89.960783,-26.6808 88.571433,-62.85714 z"
         style="fill:#3a7cff;fill-opacity:1;fill-rule:evenodd;stroke:none;stroke-width:1px;stroke-linecap:butt;stroke-linejoin:miter;stroke-opacity:1" />
      <path
         sodipodi:nodetypes="aaaaaaaaaaaaaaaaaaa"
         inkscape:connector-curvature="0"
         id="path4774"
         d="m -368.57143,-456.20923 c 158.30203,5.86056 313.176943,52.9078 471.42857,60 154.23669,6.91227 308.4921,-14.28522 462.85715,-17.14285 197.1091,-3.64892 394.47017,-8.52556 591.42861,0 187.1922,8.10282 372.6961,53.45382 560,48.57143 124.0053,-3.23241 275.1186,30.14552 368.5714,-51.42857 47.7009,-41.63768 58.6879,-119.95744 51.4286,-182.85715 -16.9582,-146.93836 -90.8253,-307.10992 -214.2858,-388.57143 -63.9118,-42.1702 -152.0551,-19.9756 -228.5714,-22.8571 -117.0947,-4.4098 -234.5079,0.8147 -351.4286,8.5714 -123.3075,8.18043 -244.9968,39.01576 -368.57139,39.99999 -113.81288,0.90648 -226.25957,-27.26782 -339.99999,-31.42858 -99.95129,-3.65633 -212.78581,-43.24811 -300.00001,5.7143 -75.79518,42.55168 -83.90549,153.59998 -140,219.99999 -51.34824,60.78177 -103.737642,129.29591 -177.142849,160 -152.254311,63.68527 -343.698071,-38.96041 -494.285721,28.57143 -30.72373,13.77822 -73.29063,37.80834 -71.42857,71.42857 1.68617,30.44441 42.40096,47.80997 71.42857,57.14286 34.50116,11.09273 72.35567,-7.05505 108.57143,-5.71429 z"
         style="fill:#0300f2;fill-opacity:1;fill-rule:evenodd;stroke:none;stroke-width:1px;stroke-linecap:butt;stroke-linejoin:miter;stroke-opacity:1" />
      <path
         sodipodi:nodetypes="aaaaaaaaaa"
         inkscape:connector-curvature="0"
         id="path4776-1"
         d="m 1060.7144,-423.95413 c 62.6038,146.73173 32.1285,317.6929 37.1428,477.142863 4.0417,128.521987 66.1666,279.096377 -5.7143,385.714237 -36.9812,54.85261 -117.20901,68.97337 -182.85714,77.1429 -68.8361,8.56625 -155.44978,16.37593 -205.71425,-31.4286 -61.9871,-58.95347 -37.63954,-167.00239 -51.4286,-251.42854 -16.39454,-100.37874 -38.88295,-201.163273 -37.1429,-302.857147 2.40818,-140.741823 -21.6011,-306.734153 65.7143,-417.142853 52.98804,-67.00239 153.90338,-116.3325 237.14285,-97.14286 69.67098,16.06162 114.79914,94.23705 142.85724,160 z"
         style="fill:#da122d;fill-opacity:1;fill-rule:evenodd;stroke:none;stroke-width:1px;stroke-linecap:butt;stroke-linejoin:miter;stroke-opacity:1" />
      <path
         sodipodi:nodetypes="aaaaaaaaaa"
         inkscape:connector-curvature="0"
         id="path4776-1-6"
         d="m 1307.8571,340.10712 c -62.6038,-146.73173 -32.1285,-317.692899 -37.1428,-477.14286 -4.0417,-128.52199 -66.1666,-279.09638 5.7143,-385.71424 36.9812,-54.8526 117.209,-68.97337 182.8571,-77.1429 68.8361,-8.56625 155.4497,-16.37592 205.7142,31.4286 61.9871,58.95347 37.6395,167.00239 51.4286,251.42854 16.3945,100.37874 38.8829,201.16327 37.1429,302.857142 -2.4082,140.741818 21.6011,306.734158 -65.7143,417.142858 -52.988,67.00238 -153.9033,116.3325 -237.1428,97.14286 -69.671,-16.06162 -114.7991,-94.23705 -142.8572,-160 z"
         style="fill:#ffcc00;fill-opacity:1;fill-rule:evenodd;stroke:none;stroke-width:1px;stroke-linecap:butt;stroke-linejoin:miter;stroke-opacity:1" />
      <path
         sodipodi:nodetypes="aaaaaaa"
         inkscape:connector-curvature="0"
         id="path4772-2"
         d="m -110.52855,-130.2998 c 27.7644,-0.34148 36.5985,-43.72988 44.705693,-70.28637 11.6792,-38.25697 17.9015,-82.7865 3.1301,-119.95917 -10.696503,-26.91816 -32.305293,-61.69949 -61.270693,-61.61916 -19.5411,0.0542 -33.2531,23.90455 -41.1043,41.7992 -16.0755,36.63991 -16.6819,81.32936 -5.9862,119.88464 9.6776,34.88554 24.3252,90.62611 60.5254,90.18086 z"
         style="fill:#ffcc00;fill-opacity:1;fill-rule:evenodd;stroke:none;stroke-width:1px;stroke-linecap:butt;stroke-linejoin:miter;stroke-opacity:1" />
    </g>
    <path
       style="fill:#8eff8e;fill-opacity:1;fill-rule:evenodd;stroke:none;stroke-width:1px;stroke-linecap:butt;stroke-linejoin:miter;stroke-opacity:1"
       d="m 76.750222,228.68233 c -0.453234,-6.86159 4.756397,-13.41628 9.678491,-18.21834 3.037403,-2.96333 7.207907,-6.43271 11.386461,-5.69323 4.626696,0.81879 8.548196,5.6872 9.678486,10.24781 1.70571,6.88234 -0.75515,15.40728 -5.69323,20.49564 -4.013103,4.13523 -11.049284,6.96286 -16.510363,5.1239 -4.641413,-1.56295 -8.217051,-7.06893 -8.539845,-11.95578 z"
       id="path4144"
       inkscape:connector-curvature="0"
       sodipodi:nodetypes="aaaaaaa" />
    <path
       style="fill:#ffdf5e;fill-opacity:1;fill-rule:evenodd;stroke:none;stroke-width:1px;stroke-linecap:butt;stroke-linejoin:miter;stroke-opacity:1"
       d="m 28.284271,987.71244 c 1.862771,-9.12495 9.111968,-19.10235 18.182746,-21.2132 7.492885,-1.74366 15.655462,3.77205 21.213203,9.09137 7.289553,6.97684 9.37831,17.90799 13.131983,27.27409 4.872353,12.1574 18.367616,25.8634 12.121831,37.3757 -4.323502,7.9691 -17.613178,9.7845 -26.263966,7.071 -7.98049,-2.5033 -9.086274,-14.7339 -16.162441,-19.1929 -7.945935,-5.0071 -24.27004,1.8275 -27.274119,-7.071 -1.917576,-5.6802 10.038119,-8.244 11.111678,-14.1422 1.201405,-6.6006 -7.402825,-12.61939 -6.060915,-19.19286 z"
       id="path4146"
       inkscape:connector-curvature="0"
       sodipodi:nodetypes="aaaaaaaaaa" />
    <path
       style="fill:#ff99f7;fill-opacity:1;fill-rule:evenodd;stroke:none;stroke-width:1px;stroke-linecap:butt;stroke-linejoin:miter;stroke-opacity:1"
       d="m 688.18692,306.86618 c -5.53844,10.53799 -27.01802,15.60174 -35.05685,6.82106 -8.12519,-8.87501 -1.16792,-30.17798 9.9872,-34.68885 4.38138,-1.77173 7.99523,9.03978 12.29053,7.06847 4.66126,-2.13928 -2.00783,-13.56286 2.88067,-15.11412 5.54039,-1.75814 11.9361,6.33211 12.54435,12.11285 0.49329,4.68817 -7.47672,7.03136 -7.90603,11.72582 -0.39981,4.37201 7.3026,8.18857 5.26013,12.07477 z"
       id="path4148"
       inkscape:connector-curvature="0"
       sodipodi:nodetypes="aaaaaaaa" />
  </g>
</svg>
