<?xml version="1.0" encoding="UTF-8" standalone="no"?>
<!-- Created with Inkscape (http://www.inkscape.org/) -->

<svg
   xmlns:dc="http://purl.org/dc/elements/1.1/"
   xmlns:cc="http://creativecommons.org/ns#"
   xmlns:rdf="http://www.w3.org/1999/02/22-rdf-syntax-ns#"
   xmlns:svg="http://www.w3.org/2000/svg"
   xmlns="http://www.w3.org/2000/svg"
   xmlns:sodipodi="http://sodipodi.sourceforge.net/DTD/sodipodi-0.dtd"
   xmlns:inkscape="http://www.inkscape.org/namespaces/inkscape"
   width="210mm"
   height="297mm"
   viewBox="0 0 744.09448 1052.3622"
   id="svg2"
   version="1.1"
   inkscape:version="0.91 r13725"
   sodipodi:docname="just.svg"
   inkscape:export-filename="E:\Pictures\Art\Pond Scum\just.png"
   inkscape:export-xdpi="90"
   inkscape:export-ydpi="90">
  <defs
     id="defs4" />
  <sodipodi:namedview
     id="base"
     pagecolor="#ffffff"
     bordercolor="#666666"
     borderopacity="1.0"
     inkscape:pageopacity="1"
     inkscape:pageshadow="2"
     inkscape:zoom="0.90509668"
     inkscape:cx="546.75515"
     inkscape:cy="415.29458"
     inkscape:document-units="px"
     inkscape:current-layer="layer1"
     showgrid="false"
     showborder="true"
     inkscape:window-width="1920"
     inkscape:window-height="1017"
     inkscape:window-x="-8"
     inkscape:window-y="-8"
     inkscape:window-maximized="1" />
  <metadata
     id="metadata7">
    <rdf:RDF>
      <cc:Work
         rdf:about="">
        <dc:format>image/svg+xml</dc:format>
        <dc:type
           rdf:resource="http://purl.org/dc/dcmitype/StillImage" />
        <dc:title></dc:title>
      </cc:Work>
    </rdf:RDF>
  </metadata>
  <g
     inkscape:label="Layer 1"
     inkscape:groupmode="layer"
     id="layer1"
     transform="translate(0,-3.464567e-6)">
    <g
       transform="matrix(0.08189515,0,0,0.08189515,482.92549,696.75907)"
       id="g5619">
      <path
         style="fill:#e425e3;fill-opacity:1;fill-rule:evenodd;stroke:none;stroke-width:1px;stroke-linecap:butt;stroke-linejoin:miter;stroke-opacity:1"
         d="m -311.43097,352.7084 c 196.77955,84.21938 229.906929,493.48855 331.605994,743.779 C 332.593,1865.3764 1285.9789,3095.4536 873.33868,3418.4069 820.62157,3459.6659 719.87138,3291.1343 661.32212,3202.3981 508.703,2971.0907 455.15369,2689.1648 337.49365,2437.0731 68.856546,1861.5075 -368.78806,1329.6289 -532.24865,736.88062 -587.74017,535.65511 -467.93774,285.7253 -311.43097,352.7084 Z"
         id="path4140-6-2-5-6-8-2"
         inkscape:connector-curvature="0"
         sodipodi:nodetypes="aaaaasa" />
      <g
         transform="matrix(1.0085666,0,0,1.0085666,-96.836366,-28.531687)"
         id="g4371">
        <path
           style="fill:#0054fb;fill-opacity:1;fill-rule:evenodd;stroke:none;stroke-width:1px;stroke-linecap:butt;stroke-linejoin:miter;stroke-opacity:1"
           d="m -954.90615,-1664.8191 c -136.22645,16.5212 -119.02735,247.6184 -168.42885,375.6422 -151.7605,393.28734 -728.2689,948.37283 -391.8625,1202.413948 42.9777,32.455134 99.9858,-48.476828 134.05,-90.190808 88.7945,-108.7351 99.5561,-262.90641 160.518,-389.36359 139.1859,-288.72179 407.15722,-524.58735 467.21404,-840.42115 20.38803,-107.2189 -93.14443,-271.2206 -201.49069,-258.0806 z"
           id="path4140"
           inkscape:connector-curvature="0"
           sodipodi:nodetypes="aaaaasa" />
        <path
           style="fill:#0054fb;fill-opacity:1;fill-rule:evenodd;stroke:none;stroke-width:1px;stroke-linecap:butt;stroke-linejoin:miter;stroke-opacity:1"
           d="m -988.69097,-205.0254 c 132.54621,35.52605 192.34335,-196.24803 296.47976,-285.61361 251.64493,-215.95131 702.1747569,-493.56735 533.74505,-750.07929 -29.55969,-45.0184 -110.85437,7.648 -158.02781,33.6305 -122.9662,67.728 -172.64353,231.17819 -294.26286,301.29617 -154.61237,89.13956 -145.0153,72.33709 -468.51857,386.12585 -78.341,75.9885 -14.8348,286.3851 90.58443,314.64038 z"
           id="path4140-9"
           inkscape:connector-curvature="0"
           sodipodi:nodetypes="asaassa" />
        <path
           style="fill:#0054fb;fill-opacity:1;fill-rule:evenodd;stroke:none;stroke-width:1px;stroke-linecap:butt;stroke-linejoin:miter;stroke-opacity:1"
           d="m 32.236735,-756.54285 c -36.6443472,0.48137 -87.092064,26.00349 -120.246061,40.49867 -128.628014,56.23718 -208.553414,188.5123 -320.502094,273.21929 -255.59673,193.3992 -601.67178,280.99967 -799.22938,534.631016 -158.1968,210.660044 -563.8047,118.305314 -578.1823,376.327114 -0.5664,53.85387 130.644,51.36086 201.9734,53.83323 185.9328,6.44472 358.5345,-76.84665 541.3259,-103.31264 417.34182,-60.42586 880.24088,14.05114 1263.88146,-126.06384 C 351.49543,245.02386 436.29502,56.090804 336.65228,-23.051488 211.369,-122.55899 -21.003786,29.048648 -196.32308,65.729161 -360.33014,100.04296 -571.47047,111.68107 -785.92042,123.17963 -451.77559,-143.05154 248.65116,-370.46215 72.425541,-735.12957 64.736599,-751.0405 50.132811,-756.77795 32.236735,-756.54285 Z"
           id="path4140-7"
           inkscape:connector-curvature="0"
           sodipodi:nodetypes="sssccssssscss" />
      </g>
      <path
         style="fill:#e425e3;fill-opacity:1;fill-rule:evenodd;stroke:none;stroke-width:1px;stroke-linecap:butt;stroke-linejoin:miter;stroke-opacity:1"
         d="m -1689.1975,601.27348 c 139.021,136.93034 38.2894,530.85162 45.1736,795.70812 21.1481,813.6352 436.417,2248.6978 -12.0641,2430.4919 -57.2959,23.225 -89.0703,-164.6059 -110.4271,-265.1217 -55.6699,-262.013 -12.1228,-542.4042 -31.8635,-813.6457 -45.0715,-619.2876 -245.9965,-1247.2728 -197.2209,-1851.75656 16.5582,-205.20951 195.8329,-404.58233 306.402,-295.67606 z"
         id="path4140-6-2-5-6-8"
         inkscape:connector-curvature="0"
         sodipodi:nodetypes="aaaaasa" />
      <path
         sodipodi:nodetypes="aaaaasa"
         inkscape:connector-curvature="0"
         id="path4140-6"
         d="m 296.60334,276.96103 c -117.11069,-106.1156 -388.312217,33.01642 -580.44825,60.33544 -590.23908,83.92397 -1680.88389,-103.54866 -1753.28919,317.48057 -9.2501,53.78862 130.538,58.2847 205.9154,64.55456 196.4853,16.3434 393.2196,-57.70059 591.6529,-74.41375 453.05497,-38.15868 932.84261,60.9243 1362.89333,-58.66684 145.99318,-40.59858 266.41864,-224.89199 173.27581,-309.28998 z"
         style="fill:#faca0a;fill-opacity:1;fill-rule:evenodd;stroke:none;stroke-width:1px;stroke-linecap:butt;stroke-linejoin:miter;stroke-opacity:1" />
      <path
         sodipodi:nodetypes="aaaaasa"
         inkscape:connector-curvature="0"
         id="path4140-6-3"
         d="m 770.88656,397.13191 c -117.1107,-106.1156 -388.31216,33.01642 -580.44816,60.33544 -590.2391,83.92396 -1680.8839,-103.54866 -1753.2892,317.48056 -9.2501,53.78862 130.538,58.2847 205.9154,64.55456 196.4853,16.3434 393.21958,-57.70059 591.65288,-74.41375 C -312.2275,726.93004 167.5601,826.01302 597.6108,706.42188 743.60396,665.8233 864.02946,481.52989 770.88656,397.13191 Z"
         style="fill:#faca0a;fill-opacity:1;fill-rule:evenodd;stroke:none;stroke-width:1px;stroke-linecap:butt;stroke-linejoin:miter;stroke-opacity:1" />
      <path
         sodipodi:nodetypes="aaaaasa"
         inkscape:connector-curvature="0"
         id="path4140-6-6"
         d="M -61.479089,566.83754 C -178.58979,460.72194 -449.79129,599.85396 -641.92729,627.17298 -1232.1664,711.09694 -2322.8112,523.62432 -2395.2165,944.65357 c -9.2501,53.78865 130.538,58.28473 205.9154,64.55453 196.4853,16.3434 393.2196,-57.70063 591.6529,-74.41373 453.055,-38.1587 932.84261,60.92435 1362.89331,-58.6669 145.993201,-40.5985 266.418701,-224.89195 173.275801,-309.28993 z"
         style="fill:#faca0a;fill-opacity:1;fill-rule:evenodd;stroke:none;stroke-width:1px;stroke-linecap:butt;stroke-linejoin:miter;stroke-opacity:1" />
      <path
         sodipodi:nodetypes="aaaaasa"
         inkscape:connector-curvature="0"
         id="path4140-6-2"
         d="M 1045.6481,607.24364 C 928.53739,501.12804 657.33589,640.26006 465.19989,667.57908 -125.03921,751.50305 -1215.684,564.03042 -1288.0893,985.05964 c -9.2501,53.78866 134.8614,53.34716 205.9154,64.55466 202.3435,31.9161 409.8912,15.2126 614.51001,5.5861 448.567758,-21.1033 909.98548,-19.0756 1340.03618,-138.66676 145.99321,-40.5986 266.41871,-224.89201 173.27581,-309.29 z"
         style="fill:#faca0a;fill-opacity:1;fill-rule:evenodd;stroke:none;stroke-width:1px;stroke-linecap:butt;stroke-linejoin:miter;stroke-opacity:1" />
      <path
         sodipodi:nodetypes="aaaaasa"
         inkscape:connector-curvature="0"
         id="path4140-6-2-5"
         d="M 743.66788,902.22838 C 604.25403,799.18103 278.10841,946.0392 47.656606,978.717 -660.28811,1079.1028 -1965.4969,921.49625 -2055.8578,1345.2073 c -11.544,54.1314 155.9121,54.7681 246.1758,58.9631 235.2892,10.9347 471.6508,-68.6706 709.5573,-90.8997 543.17854,-50.7522 1117.213093,35.2193 1633.52499,-96.4605 175.27705,-44.7024 321.14909,-232.6241 210.26759,-314.58182 z"
         style="fill:#e42525;fill-opacity:1;fill-rule:evenodd;stroke:none;stroke-width:1px;stroke-linecap:butt;stroke-linejoin:miter;stroke-opacity:1" />
      <path
         sodipodi:nodetypes="asssaasa"
         inkscape:connector-curvature="0"
         id="path4140-6-2-5-6"
         d="m -2213.1059,1154.2685 c 139.4139,-103.0472 465.5595,43.8107 696.0113,76.4886 404.6197,57.3747 1109.39739,-9.9324 1565.900852,35.5896 342.219838,34.1258 498.897718,149.3581 537.613618,330.9008 11.54409,54.1314 -155.9121,54.7681 -246.17584,58.9631 -235.2892,10.9347 -471.65083,-68.6706 -709.55733,-90.8997 -543.17853,-50.7522 -1117.2131,35.2193 -1633.525,-96.4605 -175.277,-44.7024 -321.1491,-232.6242 -210.2676,-314.5819 z"
         style="fill:#e42525;fill-opacity:1;fill-rule:evenodd;stroke:none;stroke-width:1px;stroke-linecap:butt;stroke-linejoin:miter;stroke-opacity:1" />
      <path
         sodipodi:nodetypes="aaaaasa"
         inkscape:connector-curvature="0"
         id="path4140-6-2-4"
         d="m -2430.3818,1534.2085 c 95.7951,-75.4738 297.1923,46.0431 443.659,77.2802 449.9437,95.9602 1299.54472,9.5621 1332.92373,337.5413 4.2643,41.901 -106.65788,33.9067 -161.95478,38.7609 -157.47131,13.8234 -316.36675,-10.0598 -473.38315,-28.3392 -344.2133,-40.0721 -699.548,-63.0193 -1024.2746,-177.9298 -110.2379,-39.0096 -193.1599,-187.2861 -116.9702,-247.3134 z"
         style="fill:#950afa;fill-opacity:1;fill-rule:evenodd;stroke:none;stroke-width:1px;stroke-linecap:butt;stroke-linejoin:miter;stroke-opacity:1" />
      <path
         sodipodi:nodetypes="aaaaasa"
         inkscape:connector-curvature="0"
         id="path4140-6-2-4-0"
         d="m -2177.901,2034.4658 c 111.7552,-87.7082 396.5627,5.5257 593.5231,16.7164 605.05976,34.3775 1699.94238,-165.8565 1801.92134,154.6206 13.02828,40.9426 -133.34691,47.9867 -204.74502,60.257 -203.32334,34.9427 -415.21703,32.7156 -623.65815,35.7875 -456.94717,6.7345 -925.38047,31.938 -1370.17897,-38.1107 -150.9998,-23.7799 -285.7457,-159.513 -196.8623,-229.2708 z"
         style="fill:#950afa;fill-opacity:1;fill-rule:evenodd;stroke:none;stroke-width:1px;stroke-linecap:butt;stroke-linejoin:miter;stroke-opacity:1" />
      <path
         sodipodi:nodetypes="aaaaasa"
         inkscape:connector-curvature="0"
         id="path4140-6-2-4-0-7"
         d="m -2484.0625,1918.5849 c 211.0121,-41.0464 677.1326,162.8967 1011.5331,252.0298 1027.27409,273.8157 2945.5297,513.6566 3047.497,866.3349 13.0268,45.0565 -238.9641,-6.222 -363.877,-22.6289 C 855.3711,2967.5982 493.39762,2881.2648 136.13173,2801.4646 -647.07097,2626.5258 -1454.0997,2465.015 -2199.1539,2220.1081 c -252.9302,-83.1407 -452.7349,-268.8774 -284.9086,-301.5232 z"
         style="fill:#950afa;fill-opacity:1;fill-rule:evenodd;stroke:none;stroke-width:1px;stroke-linecap:butt;stroke-linejoin:miter;stroke-opacity:1" />
      <path
         sodipodi:nodetypes="aaaaaaaaaaa"
         inkscape:connector-curvature="0"
         id="path4138"
         d="m -2115.4024,1855.9204 c -314.588,281.9295 -192.4992,1020.5158 157.1891,1257.5134 98.1882,66.546 236.2123,-138.6302 344.3192,-89.8223 267.4687,120.7561 113.0166,861.0224 396.7155,785.9458 289.80603,-76.6926 -293.8752,-731.2323 -44.9112,-898.2238 151.0938,-101.3455 355.49783,349.9858 494.02323,232.0412 393.2525,-334.8268 58.1752,-1311.5243 -426.65633,-1489.5546 -126.6715,-46.5139 -205.3925,255.0893 -336.834,224.556 -295.1255,-68.5568 -174.4422,-896.34367 -456.5971,-785.9458 -266.6411,104.3278 391.0172,637.3154 187.1299,838.3422 -76.7073,75.631 -234.1571,-146.7452 -314.3783,-74.8521 z"
         style="fill:#6699ff;fill-rule:evenodd;stroke:none;stroke-width:1px;stroke-linecap:butt;stroke-linejoin:miter;stroke-opacity:1" />
      <path
         sodipodi:nodetypes="aaaasaaaaaa"
         inkscape:connector-curvature="0"
         id="path4136"
         d="m 828.9124,2730.2488 c -122.613,263.7528 146.1673,728.662 435.7403,755.9934 155.3922,14.6666 153.5483,-389.9932 305.605,-354.7708 213.3193,49.4131 -44.6433,576.5407 166.231,635.5221 399.2515,111.6705 1192.7766,-372.9891 893.3139,-865.3542 -68.5788,-112.7546 -291.1463,85.3241 -395.8849,5.034 -231.8229,-177.7102 73.9603,-821.3587 -216.8244,-849.0534 -226.3975,-21.5624 -76.5495,540.3721 -290.5658,617.2989 -237.7945,85.4737 -505.6534,-500.7668 -685.6272,-323.393 -82.1309,80.9443 196.6195,212.9035 143.0115,314.9998 -55.8904,106.4434 -304.3184,-45.2969 -354.9994,63.7232 z"
         style="fill:#00cc00;fill-rule:evenodd;stroke:none;stroke-width:1px;stroke-linecap:butt;stroke-linejoin:miter;stroke-opacity:1" />
    </g>
    <path
       style="fill:#ff8e8e;fill-opacity:1;fill-rule:evenodd;stroke:none;stroke-width:1px;stroke-linecap:butt;stroke-linejoin:miter;stroke-opacity:1"
       d="m 89.894134,84.180022 c -4.255861,-6.836555 7.399109,-15.785581 14.708456,-19.165564 8.10114,-3.746123 18.16127,-1.116814 26.74265,1.337132 10.29472,2.943897 27.61602,4.902554 28.07978,15.599878 0.31054,7.16323 -12.99895,6.734717 -17.82843,12.034192 -4.79201,5.258357 -3.41034,16.76684 -10.25135,18.71985 -6.39699,1.82625 -11.37743,-6.94329 -17.38272,-9.80564 -5.47905,-2.61152 -15.386271,-0.8175 -16.937014,-6.68566 C 95.270762,89.574095 113.51186,86.041562 109.95112,80.168625 106.4163,74.33844 93.497353,89.968184 89.894134,84.180022 Z"
       id="path4151"
       inkscape:connector-curvature="0"
       sodipodi:nodetypes="aaaaaaaaaa" />
    <path
       style="fill:#8efaff;fill-opacity:1;fill-rule:evenodd;stroke:none;stroke-width:1px;stroke-linecap:butt;stroke-linejoin:miter;stroke-opacity:1"
       d="m 667.6337,350.74121 c 4.09288,-6.78963 9.68882,-13.83655 17.17143,-16.45596 7.45888,-2.61109 20.27208,-5.01639 23.61072,2.14643 2.82294,6.05645 -11.20013,9.77851 -11.44762,16.45595 -0.22573,6.09022 11.02473,9.89489 9.30119,15.74048 -1.8098,6.13817 -11.16248,10.78685 -17.17143,8.58572 -5.11644,-1.8742 -2.01363,-11.84629 -6.43928,-15.025 -4.85811,-3.48932 -14.47839,3.48418 -17.88691,-1.43096 -1.97883,-2.85349 1.06917,-7.04272 2.8619,-10.01666 z"
       id="path4168"
       inkscape:connector-curvature="0"
       sodipodi:nodetypes="aaaaaaaaa" />
  </g>
</svg>
