<?xml version="1.0" encoding="UTF-8" standalone="no"?>
<!-- Created with Inkscape (http://www.inkscape.org/) -->

<svg
   xmlns:dc="http://purl.org/dc/elements/1.1/"
   xmlns:cc="http://creativecommons.org/ns#"
   xmlns:rdf="http://www.w3.org/1999/02/22-rdf-syntax-ns#"
   xmlns:svg="http://www.w3.org/2000/svg"
   xmlns="http://www.w3.org/2000/svg"
   xmlns:sodipodi="http://sodipodi.sourceforge.net/DTD/sodipodi-0.dtd"
   xmlns:inkscape="http://www.inkscape.org/namespaces/inkscape"
   width="210mm"
   height="297mm"
   viewBox="0 0 744.09448819 1052.3622047"
   id="svg4203"
   version="1.1"
   inkscape:version="0.91 r13725"
   sodipodi:docname="mark.svg"
   inkscape:export-filename="E:\Pictures\Art\Pond Scum\mark.png"
   inkscape:export-xdpi="90"
   inkscape:export-ydpi="90">
  <defs
     id="defs4205" />
  <sodipodi:namedview
     id="base"
     pagecolor="#ffffff"
     bordercolor="#666666"
     borderopacity="1.0"
     inkscape:pageopacity="1"
     inkscape:pageshadow="2"
     inkscape:zoom="0.49497475"
     inkscape:cx="476.7166"
     inkscape:cy="755.43187"
     inkscape:document-units="px"
     inkscape:current-layer="layer1"
     showgrid="false"
     inkscape:window-width="1920"
     inkscape:window-height="1017"
     inkscape:window-x="-8"
     inkscape:window-y="-8"
     inkscape:window-maximized="1"
     showborder="true" />
  <metadata
     id="metadata4208">
    <rdf:RDF>
      <cc:Work
         rdf:about="">
        <dc:format>image/svg+xml</dc:format>
        <dc:type
           rdf:resource="http://purl.org/dc/dcmitype/StillImage" />
        <dc:title></dc:title>
      </cc:Work>
    </rdf:RDF>
  </metadata>
  <g
     inkscape:label="Layer 1"
     inkscape:groupmode="layer"
     id="layer1">
    <g
       id="g4142"
       transform="matrix(0.49273452,0.02877565,-0.02877565,0.49273452,306.68802,22.697875)">
      <path
         sodipodi:nodetypes="aaaaaaaaaaaaaaa"
         inkscape:connector-curvature="0"
         id="path4780"
         d="m 710.47856,200.54933 c -22.05836,4.06073 -42.0979,15.53117 -62.79282,24.17878 -31.71567,13.25277 -61.6105,30.88241 -93.98597,42.43008 -50.30562,17.94297 -101.42598,39.3111 -154.796,41.37229 -51.73825,1.99816 -102.54943,-15.57637 -152.7095,-28.41407 -45.57635,-11.66459 -87.14067,-41.12713 -134.09731,-44.01479 -17.825049,-1.09618 -47.639601,-6.82013 -52.567917,10.34513 -10.098078,35.17146 49.941907,54.32749 80.060987,75.10834 33.79198,23.315 71.45103,41.90623 110.66508,54.06127 48.49768,15.03265 100.0294,18.80858 150.68528,22.27086 58.13888,3.97372 119.48214,16.49112 174.81433,-1.79182 53.73616,-17.75556 99.37375,-57.82496 137.3868,-99.75159 19.01964,-20.97779 47.36346,-45.31591 42.95699,-73.28727 -1.74887,-11.1016 -14.67103,-18.41688 -25.16605,-22.43668 -6.36695,-2.43869 -13.74858,-1.30494 -20.4539,-0.0705 z"
         style="fill:#ff9900;fill-rule:evenodd;stroke:none;stroke-width:1px;stroke-linecap:butt;stroke-linejoin:miter;stroke-opacity:1" />
      <path
         sodipodi:nodetypes="aaaaaaaaaaaaaaaa"
         inkscape:connector-curvature="0"
         id="path4778"
         d="m 494.31703,122.39351 c 9.30687,3.40121 18.20743,9.18429 24.49452,16.84317 14.56078,17.73773 18.28084,42.10058 27.20772,63.24187 4.98759,11.812 2.89008,30.59949 14.72348,35.53607 7.79382,3.25135 15.80844,-5.99175 23.45555,-9.57464 15.04289,-7.04808 29.5912,-15.13482 44.00151,-23.3996 18.06461,-10.36065 32.77023,-28.6245 53.17242,-32.79869 10.16237,-2.07916 25.54075,-4.3341 30.77342,4.62222 5.55366,9.50572 -5.21663,22.01094 -11.76454,30.86117 -16.17228,21.85865 -41.82053,34.91547 -64.3895,50.08068 -26.71946,17.95415 -51.65005,51.18758 -83.70008,48.17497 -21.16263,-1.98923 -36.15878,-24.15431 -48.37137,-41.55163 -11.94456,-17.01549 -16.19491,-38.38446 -22.14665,-58.30371 -6.6842,-22.37064 -21.01666,-45.7978 -15.12721,-68.39071 1.87053,-7.17564 7.88976,-13.91372 14.797,-16.61164 4.01658,-1.56884 8.82363,-0.20963 12.87373,1.27047 z"
         style="fill:#700097;fill-opacity:1;fill-rule:evenodd;stroke:none;stroke-width:1px;stroke-linecap:butt;stroke-linejoin:miter;stroke-opacity:1" />
      <path
         sodipodi:nodetypes="aaaaaaaaaaaaaaaa"
         inkscape:connector-curvature="0"
         id="path4751"
         d="M 509.98367,735.56609 C 498.52169,719.14215 487.96987,702.1876 475.59772,686.2943 445.61421,647.77741 416.04005,608.17454 379.33245,574.99025 332.15464,532.34071 276.73315,498.77437 222.75442,464.64475 188.44985,442.95469 154.10629,420.16984 116.78204,404.85024 91.510911,394.47778 56.470501,367.97669 38.457098,383.73728 c -8.853307,7.7461 2.589387,25.04578 8.561836,36.56675 15.326188,29.56451 42.702833,53.37301 66.979426,77.75126 25.00081,25.10551 55.44697,45.01625 80.52321,70.05609 16.55071,16.52668 28.35946,36.97003 45.84965,52.61436 21.93187,19.61725 48.33823,33.95618 72.77801,50.54697 29.94247,20.32621 60.11329,40.3248 90.4769,60.0203 19.17826,12.43999 37.75373,26.01591 57.91424,36.72505 15.40351,8.18223 32.04084,24.22813 47.80647,20.83974 11.47391,-2.46603 19.58511,-15.30272 19.15235,-26.76077 -0.37588,-9.95234 -12.34368,-17.68729 -18.51552,-26.53094 z"
         style="fill:#f00000;fill-opacity:1;fill-rule:evenodd;stroke:none;stroke-width:1px;stroke-linecap:butt;stroke-linejoin:miter;stroke-opacity:1" />
      <path
         sodipodi:nodetypes="aaaaaaaaaaaaaaaaaaaaaaaaa"
         inkscape:connector-curvature="0"
         id="path4768"
         d="m 304.19461,807.81013 c 1.59732,-10.40703 0.63741,-21.42644 4.32187,-31.28963 6.99875,-18.73545 23.41498,-32.58356 32.76859,-50.26152 13.13422,-24.8232 19.33111,-52.92185 32.46535,-77.74507 9.799,-18.51975 21.73762,-35.90798 34.32899,-52.65491 20.21258,-26.88339 44.11915,-50.78136 65.89652,-76.41361 13.04198,-15.35057 26.21066,-30.60326 38.78577,-46.33855 15.20292,-19.02346 28.55025,-39.51916 44.30332,-58.08961 19.71712,-23.24345 41.89285,-44.2847 62.69155,-66.56558 19.44795,-20.8339 31.46439,-52.53177 58.06641,-62.75951 8.53779,-3.28254 21.82356,-4.83438 27.32984,2.46971 7.12539,9.45188 -3.1938,23.5626 -6.66248,34.87974 -4.10716,13.40026 -12.0645,25.36892 -16.60876,38.62735 -2.44256,7.12652 -3.187,14.76654 -5.68587,21.87351 -8.31434,23.64661 -19.4319,46.26009 -30.79272,68.60338 -13.83701,27.21323 -34.06305,51.19327 -45.42019,79.5312 -7.12613,17.78086 -5.57584,38.49723 -13.85267,55.77249 -16.09088,33.58469 -43.81019,60.29926 -67.62527,88.92948 -12.02959,14.46183 -26.56282,26.79438 -37.94945,41.76768 -12.10769,15.9215 -20.63776,34.30153 -32.01645,50.7519 -12.21977,17.66635 -22.63297,37.33619 -38.86994,51.39975 -15.89959,13.77135 -34.79603,25.57698 -55.24885,30.48915 -14.29265,3.43268 -31.89056,6.77598 -44.07347,-1.44837 -6.51153,-4.39574 -8.55095,-13.7628 -9.52542,-21.5585 -0.83738,-6.69899 2.34912,-13.29749 3.37333,-19.97048 z"
         style="fill:#ff26e4;fill-opacity:1;fill-rule:evenodd;stroke:none;stroke-width:1px;stroke-linecap:butt;stroke-linejoin:miter;stroke-opacity:1" />
      <path
         sodipodi:nodetypes="aaaaaaaaaaa"
         inkscape:connector-curvature="0"
         id="path4772"
         d="m 286.94503,475.93261 c 7.80663,7.56571 24.34467,-0.0474 37.12547,-6.11658 11.47493,-5.44905 22.51898,-15.88687 32.87094,-25.94593 11.60002,-11.27184 23.97539,-23.29203 32.04414,-37.85533 8.92564,-16.10986 15.63896,-34.84444 15.68624,-50.41513 0.0709,-23.35603 -5.05018,-50.59412 -23.133,-54.87811 -14.45062,-3.42349 -34.67945,14.65826 -50.99731,27.39366 -10.11818,7.8968 -20.89142,17.42123 -27.70346,29.31492 -9.03629,15.77717 -11.31958,33.4065 -13.958,49.64681 -2.92737,18.01892 -1.54352,34.67518 -1.88333,51.83385 -0.11319,5.71564 -3.21763,13.95361 -0.0517,17.02184 z"
         style="fill:#00cc00;fill-rule:evenodd;stroke:none;stroke-width:1px;stroke-linecap:butt;stroke-linejoin:miter;stroke-opacity:1" />
      <path
         sodipodi:nodetypes="aaaaaaaaaaaaaaaaaaaaaaa"
         inkscape:connector-curvature="0"
         id="path4776"
         d="m 191.2996,208.86842 c -3.16364,-10.28237 3.58435,-20.18566 11.72384,-25.34365 17.45412,-11.06069 46.3782,-4.01082 69.67297,-5.73686 7.10586,-0.52653 13.84618,-3.07211 21.38051,-1.40903 20.34287,4.49037 39.82936,17.52776 58.14492,29.38144 15.60222,10.09757 28.51956,23.56702 43.14604,34.95103 17.55119,13.66038 35.78035,26.52705 53.49868,39.9952 14.20372,10.79659 28.60785,21.3916 42.33082,32.71418 15.38718,12.69568 29.16823,26.96099 44.77646,39.42472 15.35569,12.26208 32.05257,22.93984 47.89725,34.63792 11.26756,8.3188 28.2791,13.73797 33.53857,25.27661 4.67765,10.26212 -0.5134,20.98053 -6.84683,27.93808 -8.0784,8.87446 -21.71282,14.91866 -36.30941,13.84571 -14.85005,-1.0916 -30.11066,-11.36518 -43.78623,-20.02012 -23.36884,-14.78958 -41.17625,-36.38909 -63.14113,-53.10317 -15.63755,-11.89933 -31.62202,-23.65043 -48.67747,-33.44123 -15.09945,-8.66794 -31.44011,-14.40237 -46.97706,-22.1004 -13.12414,-6.50259 -26.33494,-12.90775 -39.03501,-20.33324 -10.95077,-6.40271 -21.27211,-13.8686 -31.90817,-20.80291 -14.89047,-9.70802 -30.66446,-18.25526 -44.67144,-29.12407 -9.22415,-7.15753 -15.58806,-17.44792 -25.59654,-23.50944 -6.95364,-4.21139 -15.54268,-3.86888 -22.50431,-8.06626 -6.493,-3.9148 -14.71375,-8.86038 -16.65646,-15.17451 z"
         style="fill:#003399;fill-rule:evenodd;stroke:none;stroke-width:1px;stroke-linecap:butt;stroke-linejoin:miter;stroke-opacity:1" />
      <path
         sodipodi:nodetypes="aaaaaaaaaaaa"
         inkscape:connector-curvature="0"
         id="path4770"
         d="m 417.69376,550.25981 c 2.51123,8.76591 13.4455,12.46167 22.3323,12.85445 11.42075,0.50476 23.43222,-6.77263 33.83122,-13.75603 16.24284,-10.90781 28.1886,-28.22503 42.25127,-42.3738 8.56718,-8.61961 20.62206,-14.80078 25.66286,-25.90296 6.36228,-14.01268 4.41785,-30.06772 2.59231,-44.3548 -1.90363,-14.89813 -3.74666,-32.03374 -13.91224,-41.4722 -10.07191,-9.35149 -26.4816,-14.33689 -40.64332,-9.44423 -12.50928,4.32176 -20.90966,18.99143 -28.78367,30.68976 -9.44178,14.02753 -16.15701,29.97187 -21.14941,45.89921 -5.65861,18.05274 -4.57394,36.95244 -9.61414,55.12513 -3.0979,11.16959 -15.52213,22.42067 -12.56718,32.73547 z"
         style="fill:#00cc00;fill-rule:evenodd;stroke:none;stroke-width:1px;stroke-linecap:butt;stroke-linejoin:miter;stroke-opacity:1" />
      <path
         sodipodi:nodetypes="aaaaaasaaaaaaaaa"
         inkscape:connector-curvature="0"
         id="path4751-5"
         d="m 15.67503,328.6546 c 19.577313,3.97639 39.54438,5.42556 58.731932,11.92915 68.502828,23.2189 132.806188,60.4694 197.092458,95.28662 56.08512,30.37549 111.05358,63.24837 164.06908,98.85545 33.69243,22.629 68.39333,44.86574 97.54493,72.7208 19.73768,18.85984 64.7037,43.82091 51.16983,62.76433 -17.36767,24.3096 -61.12541,-11.93017 -98.88188,-34.04973 -29.89182,-17.51207 -61.78064,-27.16285 -92.46869,-41.27072 -32.29461,-14.84643 -63.48595,-32.6858 -96.44172,-45.63975 -21.75133,-8.54983 -45.11454,-11.27056 -66.45009,-21.01678 -26.75375,-12.22129 -50.55175,-30.56101 -75.58715,-46.2382 C 123.78154,462.78884 93.312998,443.24685 63.040443,423.41173 43.919736,410.88345 24.015691,399.34534 6.0625768,385.25042 -7.654382,374.48128 -29.005231,365.66515 -32.380057,350.04813 c -2.456132,-11.36575 5.865117,-23.73368 16.430209,-27.81693 9.1767489,-3.54669 21.0832488,4.28227 31.624878,6.4234 z"
         style="fill:#ffcc00;fill-opacity:1;fill-rule:evenodd;stroke:none;stroke-width:1px;stroke-linecap:butt;stroke-linejoin:miter;stroke-opacity:1" />
      <path
         sodipodi:nodetypes="aaaaaaaaaaa"
         inkscape:connector-curvature="0"
         id="path4774"
         d="m 110.40158,336.98052 c -0.92298,12.61612 0.989,26.31366 7.39365,37.22233 9.49212,16.16737 24.41485,32.94799 42.83241,36.45193 10.69173,2.03409 23.17099,-2.88797 30.89836,-10.55205 16.36134,-16.2273 13.46903,-44.2009 22.87941,-65.2357 10.13957,-22.66467 31.82875,-40.74452 35.97391,-65.22544 2.92352,-17.26601 4.63634,-40.576 -8.81323,-51.79078 -11.83386,-9.86754 -31.9893,-5.34291 -46.2208,0.56241 -22.07679,9.1607 -36.29923,31.50172 -51.25409,50.14723 -8.64239,10.7752 -15.86523,22.75953 -21.85981,35.20386 -5.10075,10.58878 -10.97224,21.49423 -11.82981,33.21621 z"
         style="fill:#6699ff;fill-rule:evenodd;stroke:none;stroke-width:1px;stroke-linecap:butt;stroke-linejoin:miter;stroke-opacity:1" />
    </g>
    <path
       style="fill:#92b6ff;fill-opacity:1;fill-rule:evenodd;stroke:none;stroke-width:1px;stroke-linecap:butt;stroke-linejoin:miter;stroke-opacity:1"
       d="m 63.226284,764.75165 c -1.856932,-9.21481 6.246226,-19.4013 14.246129,-24.33714 5.230973,-3.22745 15.515779,-6.61429 18.401251,-1.18717 2.582514,4.85729 -12.580489,8.15331 -10.09101,13.05894 3.403711,6.70717 17.075626,-5.74459 22.556366,-0.59358 4.03962,3.79658 3.54463,11.92752 0.59359,16.62048 -3.67892,5.85049 -12.101497,7.81569 -18.994835,8.31024 -5.937093,0.42595 -11.870801,-2.12574 -17.214072,-4.74871 -3.552327,-1.7438 -8.715683,-3.24379 -9.497419,-7.12306 z"
       id="path4143"
       inkscape:connector-curvature="0"
       sodipodi:nodetypes="aaaaaaaaa" />
    <path
       style="fill:#d3e9a6;fill-rule:evenodd;stroke:none;stroke-width:1px;stroke-linecap:butt;stroke-linejoin:miter;stroke-opacity:1;fill-opacity:1"
       d="m 614.28571,923.79078 c 5.57107,1.31516 10.97462,6.53913 12.14286,12.14285 1.46182,7.01191 -3.32897,14.45027 -7.85714,20 -3.5905,4.40052 -13.4489,3.66825 -14.28572,9.28572 -1.1454,7.68888 11.80983,10.76816 15,17.85714 2.66694,5.92629 7.10239,14.3652 2.85714,19.28571 -6.06582,7.0307 -19.80511,4.6248 -27.85714,0 -5.73653,-3.29489 -8.392,-10.7258 -10,-17.14285 -1.56365,-6.24005 -1.36196,-13.19701 0.71429,-19.28572 1.98315,-5.81569 9.54358,-8.96804 10.71428,-15 1.35333,-6.97295 -6.40482,-13.75152 -5,-20.71428 1.11135,-5.50825 4.45868,-12.63881 10,-13.57143 4.55886,-0.76727 6.851,7.2108 11.42857,7.85714 0.74553,0.10527 1.41008,-0.88727 2.14286,-0.71428 z"
       id="path4147"
       inkscape:connector-curvature="0"
       sodipodi:nodetypes="aaaaaaaaaaaaaa" />
    <path
       style="fill:#ffe479;fill-opacity:1;fill-rule:evenodd;stroke:none;stroke-width:1px;stroke-linecap:butt;stroke-linejoin:miter;stroke-opacity:1"
       d="m 47.582115,36.079203 c -5.262703,-0.854917 -2.987632,5.843639 -12.540869,9.928189 -3.749116,1.602959 0.785259,9.237674 4.18029,11.495796 6.02567,4.007827 18.396302,5.401181 21.685253,-1.045072 C 64.59538,49.22858 55.593249,37.380598 47.582115,36.079203 Z"
       id="path4149"
       inkscape:connector-curvature="0"
       sodipodi:nodetypes="asaaa" />
  </g>
</svg>
