<?xml version="1.0" encoding="UTF-8" standalone="no"?>
<!-- Created with Inkscape (http://www.inkscape.org/) -->

<svg
   xmlns:dc="http://purl.org/dc/elements/1.1/"
   xmlns:cc="http://creativecommons.org/ns#"
   xmlns:rdf="http://www.w3.org/1999/02/22-rdf-syntax-ns#"
   xmlns:svg="http://www.w3.org/2000/svg"
   xmlns="http://www.w3.org/2000/svg"
   xmlns:sodipodi="http://sodipodi.sourceforge.net/DTD/sodipodi-0.dtd"
   xmlns:inkscape="http://www.inkscape.org/namespaces/inkscape"
   width="210mm"
   height="297mm"
   viewBox="0 0 744.09448819 1052.3622047"
   id="svg2"
   version="1.1"
   inkscape:version="0.91 r13725"
   sodipodi:docname="melt.svg"
   inkscape:export-filename="E:\Pictures\Art\Pond Scum\melt.png"
   inkscape:export-xdpi="90"
   inkscape:export-ydpi="90">
  <defs
     id="defs4" />
  <sodipodi:namedview
     id="base"
     pagecolor="#ffffff"
     bordercolor="#666666"
     borderopacity="1.0"
     inkscape:pageopacity="1"
     inkscape:pageshadow="2"
     inkscape:zoom="0.49497475"
     inkscape:cx="253.82466"
     inkscape:cy="447.1744"
     inkscape:document-units="px"
     inkscape:current-layer="layer1"
     showgrid="false"
     inkscape:window-width="1920"
     inkscape:window-height="1017"
     inkscape:window-x="-8"
     inkscape:window-y="-8"
     inkscape:window-maximized="1"
     showborder="true" />
  <metadata
     id="metadata7">
    <rdf:RDF>
      <cc:Work
         rdf:about="">
        <dc:format>image/svg+xml</dc:format>
        <dc:type
           rdf:resource="http://purl.org/dc/dcmitype/StillImage" />
        <dc:title></dc:title>
      </cc:Work>
    </rdf:RDF>
  </metadata>
  <g
     inkscape:label="Layer 1"
     inkscape:groupmode="layer"
     id="layer1">
    <g
       id="g4140"
       transform="matrix(0.15453132,0,0,0.15453132,197.83992,242.55427)">
      <path
         sodipodi:nodetypes="aaaaaaaaaaaaaa"
         inkscape:connector-curvature="0"
         id="path4196"
         d="M 604.23349,-277.12758 C 583.09658,-146.09835 469.88704,-47.933866 394.86209,61.549821 274.24049,237.57315 139.11248,403.22587 8.5516735,572.00875 -98.769339,710.74822 -218.6784,840.08473 -317.79143,984.80186 -421.56921,1136.33 -500.15093,1303.757 -597.29717,1459.6198 c -70.59117,113.2577 -100.63403,275.2399 -220.30887,334.3022 -63.27944,31.2297 -159.65039,33.1681 -211.16206,-15.0619 -64.4154,-60.3118 -53.0845,-175.6463 -36.1512,-262.2495 33.9879,-173.8256 165.12793,-314.332 265.47923,-460.2777 C -683.78382,888.12894 -544.43612,737.47101 -413.64523,580.74616 -267.90246,406.10473 -119.27968,233.85815 30.828487,62.954295 149.02666,-71.618809 236.44037,-244.49018 389.98438,-336.71255 c 55.61352,-33.4029 133.49366,-80.57484 188.90266,-46.83345 31.14481,18.96567 31.15389,70.41877 25.34645,106.41842 z"
         style="fill:#ee1b00;fill-opacity:1;fill-rule:evenodd;stroke:none;stroke-width:1px;stroke-linecap:butt;stroke-linejoin:miter;stroke-opacity:1" />
      <path
         sodipodi:nodetypes="aaaaaaaaaaaaaaaaaaaaaaaa"
         inkscape:connector-curvature="0"
         id="path4158"
         d="M 798.7412,544.60753 C 831.24179,481.60984 864.06779,415.49267 872.34857,345.09079 880.46388,276.09503 872.12513,203.13675 847.54989,138.15733 822.51687,71.967569 783.02081,6.6445127 727.00001,-36.592065 667.05289,-82.858939 586.57158,-94.428114 513.41873,-113.99677 448.2069,-131.44115 377.80311,-171.31887 314.00031,-149.27142 232.76207,-121.1991 184.27251,-32.006453 141.98697,42.824295 78.361796,155.41865 4.5585679,286.46218 27.923521,413.66172 c 14.699078,80.02163 90.460459,137.09649 149.982639,192.56386 75.1876,70.06568 154.74695,154.15323 255.98497,171.85234 83.84791,14.65883 177.88088,-13.30915 247.72858,-61.95737 56.80835,-39.56639 85.38105,-109.98881 117.12149,-171.51302 z M 678.40927,452.89367 C 658.29235,491.88774 640.18393,536.52193 604.17905,561.59934 559.90953,592.43319 500.31089,610.15941 447.16759,600.8687 383.00238,589.65113 332.57702,536.35629 284.92269,491.94838 247.19755,456.79329 199.18021,420.61921 189.86397,369.90166 175.05508,289.28216 221.83169,206.22633 262.15728,134.8635 288.95786,87.43541 319.69064,30.904915 371.17959,13.112179 c 40.43859,-13.97404756 85.06122,11.299522 126.39293,22.35585 46.36434,12.40252 97.37333,19.736072 135.36771,49.060377 35.5056,27.403464 60.53762,68.805194 76.40349,110.756074 15.57604,41.18448 20.86197,87.42595 15.7184,131.15599 -5.24832,44.62061 -26.05416,86.52528 -46.65285,126.4532 z"
         style="fill:#0002ee;fill-opacity:1;fill-rule:evenodd;stroke:none;stroke-width:1px;stroke-linecap:butt;stroke-linejoin:miter;stroke-opacity:1" />
      <path
         inkscape:connector-curvature="0"
         id="path4153"
         d="m 1329.7632,843.54098 c 3.8327,-7.89986 7.4952,-16.86867 6.3258,-25.57096 -5.8402,-43.46027 -23.2704,-99.04236 -64.1783,-114.83629 -36.4377,-14.06809 -77.7346,16.98058 -111.0711,37.335 -80.979,49.44368 -139.9051,128.55253 -203.93975,198.56557 -67.20782,73.4824 -132.81218,149.2112 -188.52504,231.7499 -0.84259,1.2484 -1.67732,2.5019 -2.5166,3.7526 -1.31916,-3.3756 -2.62289,-6.7502 -3.88711,-10.125 -12.1063,-32.3167 -30.09645,-62.207 -42.40377,-94.4477 -14.17197,-37.1253 -42.06913,-74.34626 -36.06444,-113.62835 12.25939,-80.2 24.03348,-114.74946 43.01589,-170.05102 19.50169,-56.81413 56.80208,-107.01024 72.41562,-165.01352 11.59014,-43.05667 16.12441,-88.35023 14.99784,-132.92529 -0.74137,-29.32957 8.33374,-68.15104 -14.27379,-86.85037 -28.23269,-23.35206 -80.24634,-18.7155 -109.87942,2.83176 -120.28628,87.46442 -109.48862,277.22304 -148.43781,420.75623 -21.48181,79.16361 -51.43184,159.72563 -46.66751,241.61366 4.53783,77.9981 41.2054,151.138 70.8396,223.4299 18.93857,46.2002 25.65666,113.4148 48.07715,159.3529 -1.40303,3.0667 -2.81963,6.1275 -4.20876,9.1995 -30.42085,67.2742 -108.35241,142.6634 -74.86182,208.4633 24.57478,48.2828 105.50224,65.2296 156.00081,45.6071 84.63165,-32.8857 95.54911,-154.4491 141.24483,-232.9086 49.42718,-84.8664 83.02046,-179.9981 143.73767,-257.1912 59.81701,-76.0485 147.49381,-126.0008 212.88811,-197.3102 51.8842,-56.57736 107.8635,-112.73259 141.3719,-181.79892 z"
         style="fill:#23e1ff;fill-opacity:1;fill-rule:evenodd;stroke:none;stroke-width:1px;stroke-linecap:butt;stroke-linejoin:miter;stroke-opacity:1" />
      <path
         sodipodi:nodetypes="aaaaaaaaaaaaa"
         inkscape:connector-curvature="0"
         id="path4136-6"
         d="m 1314.3713,1650.2195 c 31.7498,-96.72 71.5739,-192.8617 82.3131,-294.0916 10.6674,-100.5542 0.4494,-203.4834 -18.6517,-302.7814 -22.2622,-115.73134 -80.8272,-221.77561 -110.7333,-335.7711 -27.7461,-105.76251 25.8745,-258.73308 -63.4211,-321.83499 -34.0894,-24.08974 -90.8944,-7.35811 -123.8966,18.20083 -36.2132,28.04575 -49.1986,81.01714 -53.3467,126.63241 -10.8568,119.39016 51.6611,234.13386 77.5505,351.18778 21.9386,99.19113 47.1963,197.70257 65.9155,297.55127 18.8911,100.766 42.258,201.566 46.7653,303.9884 3.9036,88.7055 -87.6017,211.6862 -17.2187,265.8169 23.488,18.0643 62.9223,-7.7638 84.2606,-28.323 20.6778,-19.9228 21.5075,-53.2939 30.4631,-80.5755 z"
         style="fill:#cb00c0;fill-opacity:1;fill-rule:evenodd;stroke:none;stroke-width:1px;stroke-linecap:butt;stroke-linejoin:miter;stroke-opacity:1" />
      <path
         sodipodi:nodetypes="aaaaaaaaaaaaa"
         inkscape:connector-curvature="0"
         id="path4136"
         d="m 1440.3529,1629.0833 c 31.7498,-96.72 71.5739,-192.8617 82.3131,-294.0916 10.6674,-100.5542 0.4494,-203.4834 -18.6517,-302.7814 -22.2622,-115.73134 -80.8273,-221.77562 -110.7333,-335.77111 -27.7461,-105.7625 25.8744,-258.73307 -63.4211,-321.83498 -34.0895,-24.08975 -90.8944,-7.35811 -123.8966,18.20083 -36.2132,28.04574 -47.8729,81.15717 -53.3467,126.6324 -13.7072,113.87567 26.6853,228.47754 54.522,339.74601 23.6994,94.73088 73.4174,181.85535 95.2522,277.03325 25.2204,109.936 37.3465,223.1993 40.4571,335.9482 2.4487,88.7575 -87.6017,211.6862 -17.2187,265.8169 23.488,18.0643 62.9223,-7.7638 84.2606,-28.323 20.6778,-19.9228 21.5075,-53.2939 30.4631,-80.5755 z"
         style="fill:#8d00cb;fill-opacity:1;fill-rule:evenodd;stroke:none;stroke-width:1px;stroke-linecap:butt;stroke-linejoin:miter;stroke-opacity:1" />
      <path
         sodipodi:nodetypes="aaaaaaaaaaaaaa"
         inkscape:connector-curvature="0"
         id="path4198"
         d="m 557.35477,1409.2846 c 66.53822,0.4562 151.71002,-29.8424 198.88717,17.0816 38.61867,38.4114 41.53126,115.238 14.85857,162.7291 -39.8945,71.0328 -140.03167,89.3257 -219.40456,107.688 -139.76232,32.3329 -286.91652,-2.3746 -430.36023,-0.6846 -177.735444,2.0939 -355.92305,-1.1331 -533.0748,13.411 -159.83759,13.1227 -317.64913,88.5187 -476.50687,66.5085 -66.10917,-9.1597 -169.78735,-15.1925 -183.30455,-80.55 -9.5155,-46.0089 58.2083,-75.2696 95.95936,-103.2379 67.71893,-50.1703 147.0251,-85.0589 227.29826,-110.733 128.81169,-41.1983 265.23388,-57.7011 400.15692,-66.9493 123.47317,-8.4634 247.38177,9.0792 371.133618,10.7283 107.520112,1.4327 215.132522,3.2635 322.588182,-0.7256 70.72411,-2.6255 140.99777,-15.7513 211.76893,-15.2661 z"
         style="fill:#00f500;fill-opacity:1;fill-rule:evenodd;stroke:none;stroke-width:1px;stroke-linecap:butt;stroke-linejoin:miter;stroke-opacity:1" />
      <path
         sodipodi:nodetypes="aaaaaaaaaaaaaaaaaaaaaaaa"
         inkscape:connector-curvature="0"
         id="path4178"
         d="m 326.54187,1790.3567 c 27.74987,-75.5212 53.39769,-158.1843 41.56822,-237.7681 -13.80648,-92.8843 -57.18554,-188.7427 -127.13245,-251.397 -89.85893,-80.4902 -219.002972,-113.8109 -338.925396,-126.9218 -76.942214,-8.412 -163.626484,-7.4388 -229.913304,32.5229 -79.38023,47.8554 -134.13181,137.211 -162.98537,225.2953 -28.37448,86.6216 -27.1626,185.875 -1.86662,273.4452 29.28163,101.3678 92.88771,195.2653 170.61275,266.6212 61.75405,56.6935 139.89643,103.4419 222.625282,116.9936 56.594664,9.2706 117.108875,-4.7926 169.873038,-27.261 66.61747,-28.3676 125.26888,-76.7155 173.445,-130.768 36.20856,-40.6251 63.92977,-89.6822 82.69885,-140.7623 z m -136.07196,-53.6086 c -12.39246,33.726 -30.69662,66.1155 -54.60366,92.9383 -31.80863,35.688 -70.533182,67.6101 -114.51757,86.3399 -34.837768,14.8349 -74.792471,24.12 -112.159338,17.9992 -54.622222,-8.9473 -106.216782,-39.8119 -146.990402,-77.244 -51.31902,-47.1135 -93.31483,-109.111 -112.64821,-176.0403 -16.70166,-57.8186 -17.50187,-123.3512 1.23251,-180.5435 19.05064,-58.1579 55.20077,-117.1552 107.61186,-148.7518 43.76667,-26.3853 101.00107,-27.0282 151.803297,-21.4741 79.179313,8.6565 164.4473,30.6566 223.776773,83.8007 46.18288,41.3681 74.82331,104.6598 83.93918,165.9873 7.81061,52.5458 -9.12221,107.125 -27.44444,156.9883 z"
         style="fill:#ffed0d;fill-opacity:1;fill-rule:evenodd;stroke:none;stroke-width:1px;stroke-linecap:butt;stroke-linejoin:miter;stroke-opacity:1" />
    </g>
    <path
       style="fill:#ffc671;fill-opacity:1;fill-rule:evenodd;stroke:none;stroke-width:1px;stroke-linecap:butt;stroke-linejoin:miter;stroke-opacity:1"
       d="m 632.85714,883.79078 c 2.14638,-5.708 8.1998,-11.8157 14.28571,-11.42857 10.25054,0.65204 19.02878,12.15587 21.42857,22.14285 3.60731,15.0122 -2.52814,33.49569 -13.57142,44.28572 -16.98312,16.59365 -44.83281,19.78907 -68.57143,19.28571 C 571.90022,957.76843 553.3832,956.37476 545,944.50506 c -5.63326,-7.97608 -5.91665,-22.11757 0.71428,-29.28571 6.33868,-6.8522 18.5718,-3.81313 27.85715,-2.85714 15.65496,1.61179 29.96564,18.938 45,14.28571 9.23643,-2.85815 15.52842,-13.47323 17.85714,-22.85714 1.6311,-6.57276 -5.955,-13.66121 -3.57143,-20 z"
       id="path4141"
       inkscape:connector-curvature="0"
       sodipodi:nodetypes="aaaaaaaaaaa" />
    <path
       style="fill:#ecff69;fill-opacity:1;fill-rule:evenodd;stroke:none;stroke-width:1px;stroke-linecap:butt;stroke-linejoin:miter;stroke-opacity:1"
       d="m 26.428572,740.93363 c 3.118657,-6.70665 4.74944,-18.77774 12.142857,-18.57142 7.144041,0.19936 5.287081,13.92142 10.714285,18.57142 6.010285,5.14958 21.569083,0.6776 22.142858,8.57143 0.456025,6.27385 -13.67137,3.63178 -16.428572,9.28572 -2.110583,4.32798 6.309488,11.87218 2.142857,14.28571 C 50.836286,776.72958 47.035942,761.40596 40,759.50506 c -6.501259,-1.75645 -15.607165,7.96151 -20,2.85715 -4.86446,-5.65237 3.284165,-14.66655 6.428572,-21.42858 z"
       id="path4143"
       inkscape:connector-curvature="0"
       sodipodi:nodetypes="aaaaaaaaa" />
    <path
       style="fill:#cbdcff;fill-opacity:1;fill-rule:evenodd;stroke:none;stroke-width:1px;stroke-linecap:butt;stroke-linejoin:miter;stroke-opacity:1"
       d="m 699.28571,16.647925 c 7.48134,2.834053 14.25712,11.285624 14.28571,19.285714 0.039,10.905627 -8.38098,26.283129 -19.28571,26.428571 -10.52384,0.140362 -9.34383,-21.546026 -19.28571,-25 -4.63661,-1.610837 -10.19459,6.283558 -14.28572,3.571429 -6.42742,-4.26092 -9.11884,-17.500525 -3.57143,-22.857143 4.53484,-4.378869 12.26781,3.631424 18.57143,3.571429 8.0316,-0.07644 16.06033,-7.845327 23.57143,-5 z"
       id="path4145"
       inkscape:connector-curvature="0"
       sodipodi:nodetypes="aaaaaaaa" />
  </g>
</svg>
