<?xml version="1.0" encoding="UTF-8" standalone="no"?>
<!-- Created with Inkscape (http://www.inkscape.org/) -->

<svg
   xmlns:dc="http://purl.org/dc/elements/1.1/"
   xmlns:cc="http://creativecommons.org/ns#"
   xmlns:rdf="http://www.w3.org/1999/02/22-rdf-syntax-ns#"
   xmlns:svg="http://www.w3.org/2000/svg"
   xmlns="http://www.w3.org/2000/svg"
   xmlns:sodipodi="http://sodipodi.sourceforge.net/DTD/sodipodi-0.dtd"
   xmlns:inkscape="http://www.inkscape.org/namespaces/inkscape"
   width="210mm"
   height="297mm"
   viewBox="0 0 744.09448819 1052.3622047"
   id="svg2"
   version="1.1"
   inkscape:version="0.91 r13725"
   sodipodi:docname="nudi.svg"
   inkscape:export-filename="E:\Pictures\Art\Pond Scum\nudi.png"
   inkscape:export-xdpi="90"
   inkscape:export-ydpi="90">
  <defs
     id="defs4" />
  <sodipodi:namedview
     id="base"
     pagecolor="#ffffff"
     bordercolor="#666666"
     borderopacity="1.0"
     inkscape:pageopacity="1"
     inkscape:pageshadow="2"
     inkscape:zoom="3.959798"
     inkscape:cx="130.05801"
     inkscape:cy="43.810251"
     inkscape:document-units="px"
     inkscape:current-layer="layer1"
     showgrid="false"
     inkscape:window-width="1920"
     inkscape:window-height="1017"
     inkscape:window-x="-8"
     inkscape:window-y="-8"
     inkscape:window-maximized="1"
     showborder="true" />
  <metadata
     id="metadata7">
    <rdf:RDF>
      <cc:Work
         rdf:about="">
        <dc:format>image/svg+xml</dc:format>
        <dc:type
           rdf:resource="http://purl.org/dc/dcmitype/StillImage" />
        <dc:title></dc:title>
      </cc:Work>
    </rdf:RDF>
  </metadata>
  <g
     inkscape:label="Layer 1"
     inkscape:groupmode="layer"
     id="layer1">
    <g
       id="g4141"
       transform="matrix(0.40538646,0,0,0.40538646,223.12982,43.115419)">
      <path
         sodipodi:nodetypes="cac"
         inkscape:connector-curvature="0"
         id="path4153-0"
         d="m 31.920436,608.1148 c 0,0 -38.6680201,-220.93118 26.05755,-295.8317 62.177764,-71.9522 277.555424,-65.96763 277.555424,-65.96763"
         style="fill:none;fill-rule:evenodd;stroke:#fb0000;stroke-width:75;stroke-linecap:round;stroke-linejoin:miter;stroke-miterlimit:4;stroke-dasharray:none;stroke-opacity:1" />
      <path
         sodipodi:nodetypes="sssscsssssscsssssscccsss"
         inkscape:connector-curvature="0"
         id="path4174"
         d="m 351.70287,151.06483 c -19.25876,0.90242 -67.71308,24.00599 -86.11885,39.21453 -25.94622,21.43919 77.73927,32.96308 103.82084,55.80834 31.08742,27.22997 67.74491,68.70122 82.96347,107.1238 8.38393,21.16707 -1.3754,46.69318 -13.00647,71.92709 -21.70915,0.52877 -43.42293,1.24955 -65.11358,2.05212 -87.12997,3.22376 -174.21524,8.43005 -261.05336,14.86495 -61.917264,4.58821 -123.835026,9.7491 -185.205719,16.91765 -39.648991,4.6313 -90.317151,-0.6134 -118.015871,16.83297 -5.66905,3.57073 -7.09218,9.89133 -3.75084,14.13126 3.75823,4.76892 14.46322,6.62722 23.18268,8.16984 264.988717,46.88051 559.48296,81.02267 841.54939,37.8878 79.31522,-16.14246 56.19517,-10.48229 79.31522,-16.14246 36.91264,-9.0368 71.97267,-33.82758 93.62051,-65.06182 31.37442,-45.26806 62.10875,-109.41911 40.66592,-160.15131 -20.04671,-47.42911 -66.33328,-104.42653 -126.60763,-102.36384 -7.40211,0.25328 -57.82704,2.83173 -65.59659,4.55665 -32.85775,7.29481 77.95058,75.27045 75.14488,109.82885 -3.47836,42.84361 -34.71737,79.46497 -60.40144,113.93238 -27.30962,13.7583 -51.48938,12.79657 -79.73687,8.4914 -15.28586,-2.2984 -31.09124,-3.32078 -47.06233,-3.82953 17.3069,-38.91014 37.70312,-114.60063 23.36627,-151.50327 -19.74061,-50.81177 -83.76856,-74.3314 -135.47158,-91.60348 -36.84313,-12.30794 -77.05348,-32.93177 -116.48805,-31.08392 z"
         style="fill:#0060dc;fill-opacity:1;fill-rule:evenodd;stroke:none;stroke-width:1px;stroke-linecap:butt;stroke-linejoin:miter;stroke-opacity:1" />
      <path
         sodipodi:nodetypes="cac"
         inkscape:connector-curvature="0"
         id="path4153"
         d="m 89.600966,615.4887 c 0,0 -36.18131,-188.8331 19.120984,-252.67978 51.62899,-59.60583 230.93522,-51.32824 230.93522,-51.32824"
         style="fill:none;fill-rule:evenodd;stroke:#ffce08;stroke-width:75;stroke-linecap:round;stroke-linejoin:miter;stroke-miterlimit:4;stroke-dasharray:none;stroke-opacity:1" />
      <g
         transform="translate(-119.198,-44.446712)"
         id="g4143">
        <g
           id="g4139"
           transform="translate(66.670068,80.812203)">
          <path
             sodipodi:nodetypes="cscsssssssssccsssssc"
             inkscape:connector-curvature="0"
             id="path4201"
             d="m 622.65803,756.56219 c 0,0 22.60746,30.59153 27.10723,36.13883 4.49977,5.54728 9.32528,19.65982 9.32528,19.65982 0,0 0.54289,14.27539 2.45903,27.06895 1.91614,12.79358 -0.72178,18.61231 -1.7693,28.65937 -1.04751,10.04707 -7.96806,16.02867 -11.92495,24.75678 -3.95688,8.72809 -12.35925,13.33645 -16.42471,19.20947 -4.06547,5.87303 -4.01118,7.30057 -12.57642,7.6263 -8.56522,0.32574 -3.92114,-1.35031 -12.84785,0.4886 -8.51095,1.75328 0,0 -8.51095,1.75328 -9.38606,1.93354 -9.99278,0.38002 -13.22787,-9.50418 -3.2351,-9.8842 -3.12652,-7.02911 -3.34368,-12.73927 l -0.54289,-14.2754 -0.81434,-21.4131 -0.65146,-17.13046 c -0.38003,-9.99278 0.83036,-15.75723 1.93216,-24.37676 1.1018,-8.61953 1.21038,-5.76444 5.00441,-18.77517 3.79401,-13.01072 9.3413,-17.51049 14.8343,-23.43781 5.49301,-5.92731 6.86626,-7.40914 13.94967,-9.10813 7.0834,-1.69898 8.02234,-14.60112 8.02234,-14.60112 z"
             style="fill:#a700f2;fill-opacity:1;fill-rule:evenodd;stroke:none;stroke-width:1px;stroke-linecap:butt;stroke-linejoin:miter;stroke-opacity:1" />
          <path
             sodipodi:nodetypes="aaaaaaaaaaaaaaaaaaaaaaaaaaaaccaaaaaaaaaaaaa"
             inkscape:connector-curvature="0"
             id="path4199"
             d="m 635.42936,678.87787 c 12.55449,-13.68512 14.52805,-34.30081 19.45869,-52.20575 1.1656,-4.2327 1.25154,-8.7101 2.36647,-12.95643 2.33558,-8.89525 6.71371,-17.1717 9.01558,-26.07574 1.70649,-6.601 2.31408,-13.43837 3.52258,-20.14842 3.46062,-19.21466 9.25922,-38.11787 10.67629,-57.59018 0.38019,-5.22429 0.39697,-10.56005 -0.59718,-15.70293 -1.80075,-9.31558 -15.27756,-19.19813 -9.59673,-26.79752 6.01446,-8.04571 20.9703,-2.50334 30.08691,1.71501 9.79795,4.5336 15.30188,15.26395 22.336,23.45384 8.00693,9.32253 15.88579,18.84089 22.55317,29.16399 8.89736,13.77575 16.61385,28.37569 23.09605,43.43939 3.33539,7.75094 6.21132,15.76375 8.06061,23.99673 2.61737,11.65245 2.69063,23.73445 4.21231,35.57991 1.21952,9.4933 4.04472,18.87146 3.94085,28.44221 -0.21079,19.42369 -3.51088,38.97785 -9.24875,57.53589 -4.27805,13.8365 -9.34539,28.0973 -18.51975,39.30362 -12.80152,15.63684 -31.2525,25.89773 -48.66095,36.16106 -9.75052,5.74851 -20.14526,10.56634 -30.91727,14.04221 -14.23021,4.59172 -29.13352,7.06081 -43.98228,8.82065 -11.82203,1.40113 -23.79232,0.90482 -35.68848,1.35723 -11.42032,0.43431 -22.85343,1.99606 -34.26096,1.30293 -9.69454,-0.58905 -19.44886,-1.88838 -28.76795,-4.62437 -14.7135,-4.31974 -28.58957,-11.26788 -42.15869,-18.41117 -15.77741,-8.30583 -31.59342,-17.00538 -45.39378,-28.29537 -3.91793,-3.20523 -7.54164,-6.88125 -10.42709,-11.0403 -8.02017,-11.56012 -12.58707,-25.17013 -18.59628,-37.89209 -4.83431,-10.23462 -10.32967,-20.22452 -14.04221,-30.91727 -4.62537,-13.32187 -8.35449,-32.21595 -10.13962,-41.07292 3.93071,-23.65496 0.25539,-36.84293 -4.91806,-54.13792 -2.29661,-8.27174 -3.97468,-17.20155 -2.40474,-25.64143 2.18233,-11.73205 7.3193,-23.80178 15.93611,-32.05733 5.55504,-5.32214 13.78214,-11.79153 21.08736,-9.37958 15.77459,5.20829 16.97724,28.58591 24.5236,43.38511 3.97694,7.79922 6.98881,16.06359 10.91569,23.88815 3.82087,7.61335 8.61191,14.72245 12.28893,22.40631 4.16211,8.69756 5.52271,18.82469 11.02427,26.74323 6.91641,9.95501 17.0576,17.33714 26.67292,24.71851 8.69588,6.67555 18.51763,11.74035 27.829,17.52653 7.29149,4.53103 13.72801,11.01223 21.95598,13.46106 6.86128,2.04207 14.31085,0.79012 21.46738,0.6132 11.91064,-0.29445 24.12173,0.28332 35.6342,-2.78476 7.0085,-1.86777 14.75663,-3.98053 19.65982,-9.32529 z"
             style="fill:#ff49fa;fill-opacity:1;fill-rule:evenodd;stroke:none;stroke-width:1px;stroke-linecap:butt;stroke-linejoin:miter;stroke-opacity:1" />
        </g>
        <path
           style="fill:#21d521;fill-opacity:1;fill-rule:evenodd;stroke:none;stroke-width:1px;stroke-linecap:butt;stroke-linejoin:miter;stroke-opacity:1"
           d="m 266.66883,372.5975 c -19.25985,17.90737 -18.44338,53.87937 -11.64554,79.90754 4.82527,18.4754 21.6061,31.2308 34.73733,44.63441 17.70958,18.07695 39.89943,30.80766 58.71041,47.55234 67.06455,59.6978 126.00905,128.08196 192.63782,188.26575 13.43532,12.13572 26.9137,24.35546 41.70532,34.79537 13.96022,9.85312 27.79305,21.07082 44.12748,26.08661 15.27255,4.68972 32.02979,5.28558 47.83713,2.96777 10.18035,-1.49273 21.16715,-3.96017 28.96281,-10.67549 6.75998,-5.82317 13.54175,-14.57009 12.87416,-23.46733 -6.39988,-85.2941 -105.91557,-134.41729 -155.60876,-204.03503 -10.86827,-15.22592 -18.97296,-32.60313 -31.14423,-46.68587 -12.04105,-13.93207 -26.26003,-25.79557 -40.8616,-36.74226 -17.44842,-13.08097 -37.3681,-22.1697 -55.45208,-34.27258 -11.59587,-7.76067 -22.30007,-16.92575 -33.97382,-24.55794 -25.27145,-16.52231 -48.96138,-38.50886 -77.91949,-45.86443 -17.83563,-4.53038 -41.31586,-10.61992 -54.98694,2.09114 z"
           id="path4195"
           inkscape:connector-curvature="0"
           sodipodi:nodetypes="aaaaaaaaaaaaaaaaa" />
      </g>
    </g>
    <path
       style="fill:#ffb692;fill-opacity:1;fill-rule:evenodd;stroke:none;stroke-width:1px;stroke-linecap:butt;stroke-linejoin:miter;stroke-opacity:1"
       d="m 101.42857,646.64792 c 5.77163,0.68932 12.98753,4.33418 14.28572,10 2.07114,9.03925 -4.67764,21.65925 -13.57143,24.28571 -8.784663,2.59423 -21.40665,-4.16167 -24.285718,-12.85714 -1.740683,-5.25728 3.089599,-11.2264 7.142857,-15 4.303978,-4.00702 10.589548,-7.12594 16.428571,-6.42857 z"
       id="path4142"
       inkscape:connector-curvature="0"
       sodipodi:nodetypes="aaaaaa" />
    <path
       style="fill:#baffba;fill-opacity:1;fill-rule:evenodd;stroke:none;stroke-width:1px;stroke-linecap:butt;stroke-linejoin:miter;stroke-opacity:1"
       d="m 598.0103,840.23017 c -2.42092,12.47359 -24.78281,9.97718 -32.32488,20.20305 -7.02943,9.53082 -6.87874,22.71103 -9.09137,34.34519 -2.15372,11.32437 4.71913,26.85208 -4.04061,34.34519 -6.65767,5.69499 -20.18913,5.30282 -26.26397,-1.01016 -6.30383,-6.55094 -1.45628,-18.30014 0,-27.27412 2.04673,-12.61254 5.52545,-25.42232 12.12183,-36.36549 5.5326,-9.1784 13.37816,-17.18247 22.22336,-23.23351 8.72209,-5.96683 19.12323,-14.98975 29.29442,-12.12183 4.40798,1.2429 8.95381,6.61572 8.08122,11.11168 z"
       id="path4144"
       inkscape:connector-curvature="0"
       sodipodi:nodetypes="aaaaaaaaaa" />
    <path
       style="fill:#92d5ff;fill-opacity:1;fill-rule:evenodd;stroke:none;stroke-width:1px;stroke-linecap:butt;stroke-linejoin:miter;stroke-opacity:1"
       d="m 23.991123,1022.0576 c 5.869538,0.5273 -1.415308,6.4822 12.374368,12.627 4.568374,2.0357 -5.969733,11.4065 -10.859139,10.354 -3.285593,-0.7073 -0.555905,-8.4228 -3.788072,-9.3439 -3.708107,-1.0567 -5.870236,8.4919 -9.343911,6.8185 -3.5676162,-1.7187 -2.248859,-8.3139 -0.505077,-11.8693 2.180417,-4.4457 7.190115,-9.0294 12.121831,-8.5863 z"
       id="path4146"
       inkscape:connector-curvature="0"
       sodipodi:nodetypes="asaaaaa" />
  </g>
</svg>
