<?xml version="1.0" encoding="UTF-8" standalone="no"?>
<!-- Created with Inkscape (http://www.inkscape.org/) -->

<svg
   xmlns:dc="http://purl.org/dc/elements/1.1/"
   xmlns:cc="http://creativecommons.org/ns#"
   xmlns:rdf="http://www.w3.org/1999/02/22-rdf-syntax-ns#"
   xmlns:svg="http://www.w3.org/2000/svg"
   xmlns="http://www.w3.org/2000/svg"
   xmlns:sodipodi="http://sodipodi.sourceforge.net/DTD/sodipodi-0.dtd"
   xmlns:inkscape="http://www.inkscape.org/namespaces/inkscape"
   width="210mm"
   height="297mm"
   viewBox="0 0 744.09448819 1052.3622047"
   id="svg2"
   version="1.1"
   inkscape:version="0.91 r13725"
   sodipodi:docname="port.svg"
   inkscape:export-filename="E:\Pictures\Art\Pond Scum\port.png"
   inkscape:export-xdpi="90"
   inkscape:export-ydpi="90">
  <defs
     id="defs4" />
  <sodipodi:namedview
     id="base"
     pagecolor="#ffffff"
     bordercolor="#666666"
     borderopacity="1.0"
     inkscape:pageopacity="1"
     inkscape:pageshadow="2"
     inkscape:zoom="1.979899"
     inkscape:cx="602.75848"
     inkscape:cy="26.891599"
     inkscape:document-units="px"
     inkscape:current-layer="layer1"
     showgrid="false"
     showborder="true"
     inkscape:window-width="1920"
     inkscape:window-height="1017"
     inkscape:window-x="-8"
     inkscape:window-y="-8"
     inkscape:window-maximized="1" />
  <metadata
     id="metadata7">
    <rdf:RDF>
      <cc:Work
         rdf:about="">
        <dc:format>image/svg+xml</dc:format>
        <dc:type
           rdf:resource="http://purl.org/dc/dcmitype/StillImage" />
        <dc:title></dc:title>
      </cc:Work>
    </rdf:RDF>
  </metadata>
  <g
     inkscape:label="Layer 1"
     inkscape:groupmode="layer"
     id="layer1">
    <g
       id="g4142"
       transform="matrix(0.05604124,0,0,0.05604124,315.85513,689.2186)">
      <path
         sodipodi:nodetypes="aaaaaaaaaaa"
         inkscape:connector-curvature="0"
         id="path4136"
         d="M 937.42156,-689.14078 C 596.17649,-419.65927 187.82973,-241.08911 -145.46197,38.16905 -429.47976,276.14163 -797.0315,487.70718 -917.21851,838.20987 c -36.90714,107.63271 -54.03015,270.30573 36.36549,339.41123 135.45302,103.5508 358.09523,5.5988 505.07627,-80.8122 C -2.0423005,877.08815 110.84719,369.78933 428.30468,74.534542 699.65646,-177.83914 1095.0711,-278.35402 1349.5638,-547.71943 c 101.2071,-107.12165 289.1613,-246.53897 226.2742,-379.81735 -49.4217,-104.74082 -233.592,-89.18802 -343.4519,-52.52793 -85.8286,28.6409 -124.9936,130.9185 -189.9087,193.94928 -34.1913,33.19878 -67.65472,67.43895 -105.05584,96.97465 z"
         style="fill:#ee1111;fill-opacity:1;fill-rule:evenodd;stroke:none;stroke-width:1px;stroke-linecap:butt;stroke-linejoin:miter;stroke-opacity:1" />
      <path
         sodipodi:nodetypes="aaaaaaaaaaa"
         inkscape:connector-curvature="0"
         id="path4136-2"
         d="M 1651.0185,-41.130954 C 1309.7734,228.35056 901.42663,406.92072 568.135,686.17889 284.11721,924.15149 -83.434531,1135.717 -203.62154,1486.2197 c -36.90714,107.6327 -54.03015,270.3057 36.36549,339.4112 135.453019,103.5508 358.09523,5.5988 505.07627,-80.8122 373.73441,-219.7207 486.62391,-727.0195 804.08138,-1022.27431 271.3518,-252.3737 694.7222,-328.98744 921.2591,-622.254 76.8202,-99.44867263 181.3522,-243.124 125.2589,-355.57368 -37.838,-75.85362 -160.193,-97.30149 -242.4366,-76.77159 -87.7874,21.91377 -124.9936,130.9185 -189.9087,193.94928 -34.1913,33.19878 -67.6547,67.438946 -105.0558,96.974646 z"
         style="fill:#ee1111;fill-opacity:1;fill-rule:evenodd;stroke:none;stroke-width:1px;stroke-linecap:butt;stroke-linejoin:miter;stroke-opacity:1" />
      <path
         sodipodi:nodetypes="aaaaaaaaaaa"
         inkscape:connector-curvature="0"
         id="path4136-6"
         d="m 2462.4471,713.15476 c -341.2451,269.48151 -749.5919,448.05164 -1082.8835,727.30984 -284.0178,237.9726 -651.56956,449.5381 -771.75657,800.0408 -36.90714,107.6327 -54.03015,270.3057 36.36549,339.4112 135.45302,103.5508 358.09528,5.5988 505.07628,-80.8122 373.7344,-219.7207 486.6239,-727.0195 804.0814,-1022.2743 271.3518,-252.3737 688.3387,-334.0312 921.2591,-622.25399 74.8287,-92.59537 179.9698,-221.79043 133.3402,-331.33003 -35.2662,-82.84522 -162.3884,-119.46059 -250.5179,-101.01525 -88.5622,18.53592 -124.9936,130.9185 -189.9087,193.94928 -34.1913,33.19878 -67.6547,67.43895 -105.0558,96.97465 z"
         style="fill:#ee1111;fill-opacity:1;fill-rule:evenodd;stroke:none;stroke-width:1px;stroke-linecap:butt;stroke-linejoin:miter;stroke-opacity:1" />
      <path
         sodipodi:nodetypes="aaaaaaaaaaaaa"
         inkscape:connector-curvature="0"
         id="path4161"
         d="m -754.28572,-656.20922 c 264.32712,90.79953 472.93868,299.9999 691.428581,474.28571 C 253.27072,70.246497 521.40592,377.92058 828.57147,640.93364 1231.2312,985.71437 1794.7092,1179.1212 2074.2857,1629.505 c 129.4497,208.537 190.783,477.2803 154.2858,720 -11.0315,73.3632 -35.8929,179.3968 -108.5715,194.2857 -164.9703,33.7959 -280.6897,-189.7336 -400,-308.5714 C 1473.8061,1990.0004 1336.4421,1646.8428 1080,1412.3621 794.18291,1151.0221 388.6742,1045.1308 102.85714,783.79078 -121.5297,578.62015 -227.30047,262.83077 -457.14286,63.790777 -695.74849,-142.83805 -1257.2045,-89.96565 -1280,-404.78065 c -10.2915,-142.12904 201.0418,-220.6306 337.14286,-262.85714 60.14422,-18.66027 129.01484,-9.02983 188.57142,11.42857 z"
         style="fill:#1e0fff;fill-opacity:1;fill-rule:evenodd;stroke:none;stroke-width:1px;stroke-linecap:butt;stroke-linejoin:miter;stroke-opacity:1" />
      <path
         sodipodi:nodetypes="aaaaaaaa"
         inkscape:connector-curvature="0"
         id="path4165"
         d="m 1260.6704,551.32654 c 297.8186,11.29987 550.3422,249.54752 775.7972,444.46712 168.3583,145.55594 441.7203,304.69774 412.1422,525.27924 -15.6091,116.4065 -165.6466,217.8051 -282.8427,210.1118 -247.1165,-16.2218 -333.4621,-371.0122 -533.3606,-517.1981 -133.2755,-97.4644 -331.8256,-106.5712 -436.3859,-234.35538 -76.6314,-93.65206 -153.9996,-236.82365 -105.0558,-347.49247 25.3417,-57.30115 107.0959,-83.18776 169.7056,-80.81221 z"
         style="fill:#ffcc00;fill-rule:evenodd;stroke:none;stroke-width:1px;stroke-linecap:butt;stroke-linejoin:miter;stroke-opacity:1" />
      <path
         sodipodi:nodetypes="aaaaaaaaaaa"
         inkscape:connector-curvature="0"
         id="path4159"
         d="m -925.71432,778.07649 c 330.77914,224.50781 577.04889,559.44861 908.571464,782.85711 317.902876,214.2305 725.658456,283.5783 1022.857156,525.7143 263.6025,214.7643 687.4498,457.5982 640,794.2857 -36.0616,255.881 -378.1283,411.6719 -634.2857,445.7143 C 673.95445,3371.497 340.41256,3158.0445 51.428561,2978.0765 -354.51918,2725.2681 -627.01087,2303.289 -982.85719,1983.7908 -1302.7864,1696.541 -1803.1295,1550.874 -1971.4285,1155.2194 c -65.0193,-152.854 -79.7312,-376.34559 34.2857,-497.14291 144.9777,-153.59942 420.6723,-117.27366 628.5714,-80 141.7231,25.40916 263.7232,119.14096 382.85708,200 z"
         style="fill:#2a2a2a;fill-opacity:1;fill-rule:evenodd;stroke:none;stroke-width:1px;stroke-linecap:butt;stroke-linejoin:miter;stroke-opacity:1" />
      <path
         sodipodi:nodetypes="aaaaaaaa"
         inkscape:connector-curvature="0"
         id="path4165-1"
         d="M 2983.501,915.11226 C 2685.6824,903.81236 2433.1588,665.56475 2207.7038,470.64515 2039.3455,325.08921 1765.9835,165.94741 1795.5616,-54.634089 c 15.6091,-116.406521 165.6466,-217.805121 282.8427,-210.111821 247.1165,16.2218 333.4621,371.01222 533.3606,517.19812 133.2755,97.4644 331.8256,106.5712 436.3859,234.35538 76.6314,93.65206 153.9996,236.82365 105.0558,347.49247 -25.3417,57.30114 -107.0959,83.1878 -169.7056,80.8122 z"
         style="fill:#ffcc00;fill-rule:evenodd;stroke:none;stroke-width:1px;stroke-linecap:butt;stroke-linejoin:miter;stroke-opacity:1" />
      <path
         sodipodi:nodetypes="aaaaaaaaa"
         inkscape:connector-curvature="0"
         id="path4182"
         d="m 1511.1882,-54.764983 c 330.4092,-24.831731 531.5462,395.770633 800.0408,589.929093 294.3478,212.85388 671.6976,339.20695 888.9343,630.33519 159.9656,214.3769 438.0461,561.2784 258.599,759.6347 -103.8924,114.84 -312.9501,-38.0171 -452.5483,-105.0559 -204.0312,-97.9812 -359.4454,-275.37 -533.3606,-420.2234 -275.7154,-229.6424 -558.8783,-453.01522 -808.122,-711.1474 -147.5803,-152.84333 -414.55,-280.74929 -404.061,-492.95445 5.8301,-117.951244 132.7547,-241.667406 250.5178,-250.517833 z"
         style="fill:#fb08ff;fill-opacity:1;fill-rule:evenodd;stroke:none;stroke-width:1px;stroke-linecap:butt;stroke-linejoin:miter;stroke-opacity:1" />
      <path
         sodipodi:nodetypes="aaaaaaaaa"
         inkscape:connector-curvature="0"
         id="path4163"
         d="m 1288.983,-280.92468 c 158.1552,-97.38109 171.8657,-368.02866 343.6757,-438.57991 171.6473,-70.48443 446.7062,-82.23132 552.194,70.42244 213.3465,308.73866 -52.9043,783.17227 -261.6997,1095.00683 -151.6371,226.4691 -391.7944,450.66006 -662.9013,478.64444 C 1003.1171,951.11124 741.55739,784.39588 552.03883,608.59657 441.16255,505.74663 308.25087,357.84227 336.62614,209.29428 374.86761,9.0955092 621.15751,-95.642037 804.85039,-183.95332 c 148.33157,-71.31115 343.98591,-10.67866 484.13261,-96.97136 z"
         style="fill:#1be21b;fill-opacity:1;fill-rule:evenodd;stroke:none;stroke-width:1px;stroke-linecap:butt;stroke-linejoin:miter;stroke-opacity:1" />
    </g>
    <path
       style="fill:#eddcc3;fill-opacity:1;fill-rule:evenodd;stroke:none;stroke-width:1px;stroke-linecap:butt;stroke-linejoin:miter;stroke-opacity:1"
       d="m 424.30416,74.151087 c -6.3444,2.02103 -11.59626,11.05411 -9.72988,17.44572 1.67178,5.72518 15.73918,2.517 15.75503,8.481253 0.0139,5.2251 -15.31373,2.51385 -13.76277,7.50347 5.20754,16.75321 44.73444,10.36262 52.34959,-5.44239 6.03253,-12.520353 -9.28837,-39.518993 -22.47156,-35.119623 -5.8202,1.94227 6.44184,14.88971 1.37868,18.35547 -7.16817,4.90667 -15.24224,-13.86052 -23.51909,-11.2239 z"
       id="path4143"
       inkscape:connector-curvature="0"
       sodipodi:nodetypes="aaaaaaaa" />
    <path
       style="fill:#ffcbfb;fill-opacity:1;fill-rule:evenodd;stroke:none;stroke-width:1px;stroke-linecap:butt;stroke-linejoin:miter;stroke-opacity:1"
       d="m 36.762033,279.0645 c 14.888678,1.68894 23.616536,19.47117 37.781749,24.35706 6.086074,2.09922 14.186466,-2.22989 19.232722,1.76789 9.429016,7.46995 19.329896,25.14951 11.437456,34.22784 -8.697063,10.00384 -29.992718,2.39307 -39.103582,-7.23542 -4.066938,-4.298 0.880163,-12.59246 -2.261261,-17.60686 -7.329854,-11.70005 -26.286146,-11.69695 -34.663846,-22.67111 -1.922797,-2.51872 -4.317047,-6.20079 -2.922174,-9.04604 1.637993,-3.34115 6.801578,-4.21278 10.498936,-3.79336 z"
       id="path4145"
       inkscape:connector-curvature="0"
       sodipodi:nodetypes="aaaaaaaaa" />
    <path
       style="fill:#aeb8ff;fill-opacity:1;fill-rule:evenodd;stroke:none;stroke-width:1px;stroke-linecap:butt;stroke-linejoin:miter;stroke-opacity:1"
       d="m 599.52553,510.92044 c 15.94962,-6.71982 14.27559,-38.38074 31.31473,-41.41625 18.71277,-3.33366 44.9617,12.04379 47.98225,30.80965 3.44305,21.39069 -21.73416,40.42507 -40.91118,50.50763 -17.18943,9.03756 -41.55365,14.73929 -58.08377,4.54569 -15.16836,-9.35385 -31.05287,-35.36047 -20.20305,-49.49748 8.16234,-10.6353 27.5463,10.25599 39.90102,5.05076 z"
       id="path4147"
       inkscape:connector-curvature="0"
       sodipodi:nodetypes="aaaaaaa" />
    <path
       style="fill:#ffb888;fill-opacity:1;fill-rule:evenodd;stroke:none;stroke-width:1px;stroke-linecap:butt;stroke-linejoin:miter;stroke-opacity:1"
       d="m 609.62706,1035.1896 c 24.35314,8.8964 53.11716,7.9925 77.78174,0 11.46904,-3.7165 29.20702,-9.1573 29.29443,-21.2132 0.10815,-14.91623 -21.20928,-29.57076 -35.86042,-26.76903 -7.57243,1.44807 -4.41276,19.79143 -12.12183,19.69793 -17.72839,-0.2151 -9.14267,-47.87317 -26.76904,-45.9619 -15.29743,1.65874 -2.63714,33.72408 -14.14214,43.9416 -11.1589,9.9102 -40.19493,-5.85997 -43.94163,8.5863 -2.81951,10.8713 15.20981,17.8646 25.75889,21.7183 z"
       id="path4149"
       inkscape:connector-curvature="0"
       sodipodi:nodetypes="aaaaaaaaa" />
  </g>
</svg>
